<?xml version="1.0" encoding="utf-8" standalone="no"?>
<!DOCTYPE svg PUBLIC "-//W3C//DTD SVG 1.1//EN"
  "http://www.w3.org/Graphics/SVG/1.1/DTD/svg11.dtd">
<svg xmlns:xlink="http://www.w3.org/1999/xlink" width="1144.078125pt" height="340.642975pt" viewBox="0 0 1144.078125 340.642975" xmlns="http://www.w3.org/2000/svg" version="1.1">
 <metadata>
  <rdf:RDF xmlns:dc="http://purl.org/dc/elements/1.1/" xmlns:cc="http://creativecommons.org/ns#" xmlns:rdf="http://www.w3.org/1999/02/22-rdf-syntax-ns#">
   <cc:Work>
    <dc:type rdf:resource="http://purl.org/dc/dcmitype/StillImage"/>
    <dc:date>2022-12-23T01:45:51.097291</dc:date>
    <dc:format>image/svg+xml</dc:format>
    <dc:creator>
     <cc:Agent>
      <dc:title>Matplotlib v3.5.0, https://matplotlib.org/</dc:title>
     </cc:Agent>
    </dc:creator>
   </cc:Work>
  </rdf:RDF>
 </metadata>
 <defs>
  <style type="text/css">*{stroke-linejoin: round; stroke-linecap: butt}</style>
 </defs>
 <g id="figure_1">
  <g id="patch_1">
   <path d="M 0 340.642975 
L 1144.078125 340.642975 
L 1144.078125 0 
L 0 0 
z
" style="fill: #ffffff"/>
  </g>
  <g id="axes_1">
   <g id="patch_2">
    <path d="M 20.878125 299.518125 
L 263.486821 299.518125 
L 263.486821 22.318125 
L 20.878125 22.318125 
z
" style="fill: #ffffff"/>
   </g>
   <g id="matplotlib.axis_1">
    <g id="xtick_1">
     <g id="line2d_1">
      <defs>
       <path id="me577d345bf" d="M 0 0 
L 0 3.5 
" style="stroke: #000000; stroke-width: 0.8"/>
      </defs>
      <g>
       <use xlink:href="#me577d345bf" x="31.905793" y="299.518125" style="stroke: #000000; stroke-width: 0.8"/>
      </g>
     </g>
     <g id="text_1">
      <!-- 0 -->
      <g transform="translate(33.820799 310.9337)rotate(-90)scale(0.0694 -0.0694)">
       <defs>
        <path id="DejaVuSans-30" d="M 2034 4250 
Q 1547 4250 1301 3770 
Q 1056 3291 1056 2328 
Q 1056 1369 1301 889 
Q 1547 409 2034 409 
Q 2525 409 2770 889 
Q 3016 1369 3016 2328 
Q 3016 3291 2770 3770 
Q 2525 4250 2034 4250 
z
M 2034 4750 
Q 2819 4750 3233 4129 
Q 3647 3509 3647 2328 
Q 3647 1150 3233 529 
Q 2819 -91 2034 -91 
Q 1250 -91 836 529 
Q 422 1150 422 2328 
Q 422 3509 836 4129 
Q 1250 4750 2034 4750 
z
" transform="scale(0.015625)"/>
       </defs>
       <use xlink:href="#DejaVuSans-30"/>
      </g>
     </g>
    </g>
    <g id="xtick_2">
     <g id="line2d_2">
      <g>
       <use xlink:href="#me577d345bf" x="82.031557" y="299.518125" style="stroke: #000000; stroke-width: 0.8"/>
      </g>
     </g>
     <g id="text_2">
      <!-- 100 -->
      <g transform="translate(83.946563 319.76485)rotate(-90)scale(0.0694 -0.0694)">
       <defs>
        <path id="DejaVuSans-31" d="M 794 531 
L 1825 531 
L 1825 4091 
L 703 3866 
L 703 4441 
L 1819 4666 
L 2450 4666 
L 2450 531 
L 3481 531 
L 3481 0 
L 794 0 
L 794 531 
z
" transform="scale(0.015625)"/>
       </defs>
       <use xlink:href="#DejaVuSans-31"/>
       <use xlink:href="#DejaVuSans-30" x="63.623047"/>
       <use xlink:href="#DejaVuSans-30" x="127.246094"/>
      </g>
     </g>
    </g>
    <g id="xtick_3">
     <g id="line2d_3">
      <g>
       <use xlink:href="#me577d345bf" x="132.15732" y="299.518125" style="stroke: #000000; stroke-width: 0.8"/>
      </g>
     </g>
     <g id="text_3">
      <!-- 200 -->
      <g transform="translate(134.072326 319.76485)rotate(-90)scale(0.0694 -0.0694)">
       <defs>
        <path id="DejaVuSans-32" d="M 1228 531 
L 3431 531 
L 3431 0 
L 469 0 
L 469 531 
Q 828 903 1448 1529 
Q 2069 2156 2228 2338 
Q 2531 2678 2651 2914 
Q 2772 3150 2772 3378 
Q 2772 3750 2511 3984 
Q 2250 4219 1831 4219 
Q 1534 4219 1204 4116 
Q 875 4013 500 3803 
L 500 4441 
Q 881 4594 1212 4672 
Q 1544 4750 1819 4750 
Q 2544 4750 2975 4387 
Q 3406 4025 3406 3419 
Q 3406 3131 3298 2873 
Q 3191 2616 2906 2266 
Q 2828 2175 2409 1742 
Q 1991 1309 1228 531 
z
" transform="scale(0.015625)"/>
       </defs>
       <use xlink:href="#DejaVuSans-32"/>
       <use xlink:href="#DejaVuSans-30" x="63.623047"/>
       <use xlink:href="#DejaVuSans-30" x="127.246094"/>
      </g>
     </g>
    </g>
    <g id="xtick_4">
     <g id="line2d_4">
      <g>
       <use xlink:href="#me577d345bf" x="182.283084" y="299.518125" style="stroke: #000000; stroke-width: 0.8"/>
      </g>
     </g>
     <g id="text_4">
      <!-- 300 -->
      <g transform="translate(184.19809 319.76485)rotate(-90)scale(0.0694 -0.0694)">
       <defs>
        <path id="DejaVuSans-33" d="M 2597 2516 
Q 3050 2419 3304 2112 
Q 3559 1806 3559 1356 
Q 3559 666 3084 287 
Q 2609 -91 1734 -91 
Q 1441 -91 1130 -33 
Q 819 25 488 141 
L 488 750 
Q 750 597 1062 519 
Q 1375 441 1716 441 
Q 2309 441 2620 675 
Q 2931 909 2931 1356 
Q 2931 1769 2642 2001 
Q 2353 2234 1838 2234 
L 1294 2234 
L 1294 2753 
L 1863 2753 
Q 2328 2753 2575 2939 
Q 2822 3125 2822 3475 
Q 2822 3834 2567 4026 
Q 2313 4219 1838 4219 
Q 1578 4219 1281 4162 
Q 984 4106 628 3988 
L 628 4550 
Q 988 4650 1302 4700 
Q 1616 4750 1894 4750 
Q 2613 4750 3031 4423 
Q 3450 4097 3450 3541 
Q 3450 3153 3228 2886 
Q 3006 2619 2597 2516 
z
" transform="scale(0.015625)"/>
       </defs>
       <use xlink:href="#DejaVuSans-33"/>
       <use xlink:href="#DejaVuSans-30" x="63.623047"/>
       <use xlink:href="#DejaVuSans-30" x="127.246094"/>
      </g>
     </g>
    </g>
    <g id="xtick_5">
     <g id="line2d_5">
      <g>
       <use xlink:href="#me577d345bf" x="232.408847" y="299.518125" style="stroke: #000000; stroke-width: 0.8"/>
      </g>
     </g>
     <g id="text_5">
      <!-- 400 -->
      <g transform="translate(234.323853 319.76485)rotate(-90)scale(0.0694 -0.0694)">
       <defs>
        <path id="DejaVuSans-34" d="M 2419 4116 
L 825 1625 
L 2419 1625 
L 2419 4116 
z
M 2253 4666 
L 3047 4666 
L 3047 1625 
L 3713 1625 
L 3713 1100 
L 3047 1100 
L 3047 0 
L 2419 0 
L 2419 1100 
L 313 1100 
L 313 1709 
L 2253 4666 
z
" transform="scale(0.015625)"/>
       </defs>
       <use xlink:href="#DejaVuSans-34"/>
       <use xlink:href="#DejaVuSans-30" x="63.623047"/>
       <use xlink:href="#DejaVuSans-30" x="127.246094"/>
      </g>
     </g>
    </g>
    <g id="text_6">
     <!-- number of components in model -->
     <g transform="translate(60.473879 331.363288)scale(0.1 -0.1)">
      <defs>
       <path id="DejaVuSans-6e" d="M 3513 2113 
L 3513 0 
L 2938 0 
L 2938 2094 
Q 2938 2591 2744 2837 
Q 2550 3084 2163 3084 
Q 1697 3084 1428 2787 
Q 1159 2491 1159 1978 
L 1159 0 
L 581 0 
L 581 3500 
L 1159 3500 
L 1159 2956 
Q 1366 3272 1645 3428 
Q 1925 3584 2291 3584 
Q 2894 3584 3203 3211 
Q 3513 2838 3513 2113 
z
" transform="scale(0.015625)"/>
       <path id="DejaVuSans-75" d="M 544 1381 
L 544 3500 
L 1119 3500 
L 1119 1403 
Q 1119 906 1312 657 
Q 1506 409 1894 409 
Q 2359 409 2629 706 
Q 2900 1003 2900 1516 
L 2900 3500 
L 3475 3500 
L 3475 0 
L 2900 0 
L 2900 538 
Q 2691 219 2414 64 
Q 2138 -91 1772 -91 
Q 1169 -91 856 284 
Q 544 659 544 1381 
z
M 1991 3584 
L 1991 3584 
z
" transform="scale(0.015625)"/>
       <path id="DejaVuSans-6d" d="M 3328 2828 
Q 3544 3216 3844 3400 
Q 4144 3584 4550 3584 
Q 5097 3584 5394 3201 
Q 5691 2819 5691 2113 
L 5691 0 
L 5113 0 
L 5113 2094 
Q 5113 2597 4934 2840 
Q 4756 3084 4391 3084 
Q 3944 3084 3684 2787 
Q 3425 2491 3425 1978 
L 3425 0 
L 2847 0 
L 2847 2094 
Q 2847 2600 2669 2842 
Q 2491 3084 2119 3084 
Q 1678 3084 1418 2786 
Q 1159 2488 1159 1978 
L 1159 0 
L 581 0 
L 581 3500 
L 1159 3500 
L 1159 2956 
Q 1356 3278 1631 3431 
Q 1906 3584 2284 3584 
Q 2666 3584 2933 3390 
Q 3200 3197 3328 2828 
z
" transform="scale(0.015625)"/>
       <path id="DejaVuSans-62" d="M 3116 1747 
Q 3116 2381 2855 2742 
Q 2594 3103 2138 3103 
Q 1681 3103 1420 2742 
Q 1159 2381 1159 1747 
Q 1159 1113 1420 752 
Q 1681 391 2138 391 
Q 2594 391 2855 752 
Q 3116 1113 3116 1747 
z
M 1159 2969 
Q 1341 3281 1617 3432 
Q 1894 3584 2278 3584 
Q 2916 3584 3314 3078 
Q 3713 2572 3713 1747 
Q 3713 922 3314 415 
Q 2916 -91 2278 -91 
Q 1894 -91 1617 61 
Q 1341 213 1159 525 
L 1159 0 
L 581 0 
L 581 4863 
L 1159 4863 
L 1159 2969 
z
" transform="scale(0.015625)"/>
       <path id="DejaVuSans-65" d="M 3597 1894 
L 3597 1613 
L 953 1613 
Q 991 1019 1311 708 
Q 1631 397 2203 397 
Q 2534 397 2845 478 
Q 3156 559 3463 722 
L 3463 178 
Q 3153 47 2828 -22 
Q 2503 -91 2169 -91 
Q 1331 -91 842 396 
Q 353 884 353 1716 
Q 353 2575 817 3079 
Q 1281 3584 2069 3584 
Q 2775 3584 3186 3129 
Q 3597 2675 3597 1894 
z
M 3022 2063 
Q 3016 2534 2758 2815 
Q 2500 3097 2075 3097 
Q 1594 3097 1305 2825 
Q 1016 2553 972 2059 
L 3022 2063 
z
" transform="scale(0.015625)"/>
       <path id="DejaVuSans-72" d="M 2631 2963 
Q 2534 3019 2420 3045 
Q 2306 3072 2169 3072 
Q 1681 3072 1420 2755 
Q 1159 2438 1159 1844 
L 1159 0 
L 581 0 
L 581 3500 
L 1159 3500 
L 1159 2956 
Q 1341 3275 1631 3429 
Q 1922 3584 2338 3584 
Q 2397 3584 2469 3576 
Q 2541 3569 2628 3553 
L 2631 2963 
z
" transform="scale(0.015625)"/>
       <path id="DejaVuSans-20" transform="scale(0.015625)"/>
       <path id="DejaVuSans-6f" d="M 1959 3097 
Q 1497 3097 1228 2736 
Q 959 2375 959 1747 
Q 959 1119 1226 758 
Q 1494 397 1959 397 
Q 2419 397 2687 759 
Q 2956 1122 2956 1747 
Q 2956 2369 2687 2733 
Q 2419 3097 1959 3097 
z
M 1959 3584 
Q 2709 3584 3137 3096 
Q 3566 2609 3566 1747 
Q 3566 888 3137 398 
Q 2709 -91 1959 -91 
Q 1206 -91 779 398 
Q 353 888 353 1747 
Q 353 2609 779 3096 
Q 1206 3584 1959 3584 
z
" transform="scale(0.015625)"/>
       <path id="DejaVuSans-66" d="M 2375 4863 
L 2375 4384 
L 1825 4384 
Q 1516 4384 1395 4259 
Q 1275 4134 1275 3809 
L 1275 3500 
L 2222 3500 
L 2222 3053 
L 1275 3053 
L 1275 0 
L 697 0 
L 697 3053 
L 147 3053 
L 147 3500 
L 697 3500 
L 697 3744 
Q 697 4328 969 4595 
Q 1241 4863 1831 4863 
L 2375 4863 
z
" transform="scale(0.015625)"/>
       <path id="DejaVuSans-63" d="M 3122 3366 
L 3122 2828 
Q 2878 2963 2633 3030 
Q 2388 3097 2138 3097 
Q 1578 3097 1268 2742 
Q 959 2388 959 1747 
Q 959 1106 1268 751 
Q 1578 397 2138 397 
Q 2388 397 2633 464 
Q 2878 531 3122 666 
L 3122 134 
Q 2881 22 2623 -34 
Q 2366 -91 2075 -91 
Q 1284 -91 818 406 
Q 353 903 353 1747 
Q 353 2603 823 3093 
Q 1294 3584 2113 3584 
Q 2378 3584 2631 3529 
Q 2884 3475 3122 3366 
z
" transform="scale(0.015625)"/>
       <path id="DejaVuSans-70" d="M 1159 525 
L 1159 -1331 
L 581 -1331 
L 581 3500 
L 1159 3500 
L 1159 2969 
Q 1341 3281 1617 3432 
Q 1894 3584 2278 3584 
Q 2916 3584 3314 3078 
Q 3713 2572 3713 1747 
Q 3713 922 3314 415 
Q 2916 -91 2278 -91 
Q 1894 -91 1617 61 
Q 1341 213 1159 525 
z
M 3116 1747 
Q 3116 2381 2855 2742 
Q 2594 3103 2138 3103 
Q 1681 3103 1420 2742 
Q 1159 2381 1159 1747 
Q 1159 1113 1420 752 
Q 1681 391 2138 391 
Q 2594 391 2855 752 
Q 3116 1113 3116 1747 
z
" transform="scale(0.015625)"/>
       <path id="DejaVuSans-74" d="M 1172 4494 
L 1172 3500 
L 2356 3500 
L 2356 3053 
L 1172 3053 
L 1172 1153 
Q 1172 725 1289 603 
Q 1406 481 1766 481 
L 2356 481 
L 2356 0 
L 1766 0 
Q 1100 0 847 248 
Q 594 497 594 1153 
L 594 3053 
L 172 3053 
L 172 3500 
L 594 3500 
L 594 4494 
L 1172 4494 
z
" transform="scale(0.015625)"/>
       <path id="DejaVuSans-73" d="M 2834 3397 
L 2834 2853 
Q 2591 2978 2328 3040 
Q 2066 3103 1784 3103 
Q 1356 3103 1142 2972 
Q 928 2841 928 2578 
Q 928 2378 1081 2264 
Q 1234 2150 1697 2047 
L 1894 2003 
Q 2506 1872 2764 1633 
Q 3022 1394 3022 966 
Q 3022 478 2636 193 
Q 2250 -91 1575 -91 
Q 1294 -91 989 -36 
Q 684 19 347 128 
L 347 722 
Q 666 556 975 473 
Q 1284 391 1588 391 
Q 1994 391 2212 530 
Q 2431 669 2431 922 
Q 2431 1156 2273 1281 
Q 2116 1406 1581 1522 
L 1381 1569 
Q 847 1681 609 1914 
Q 372 2147 372 2553 
Q 372 3047 722 3315 
Q 1072 3584 1716 3584 
Q 2034 3584 2315 3537 
Q 2597 3491 2834 3397 
z
" transform="scale(0.015625)"/>
       <path id="DejaVuSans-69" d="M 603 3500 
L 1178 3500 
L 1178 0 
L 603 0 
L 603 3500 
z
M 603 4863 
L 1178 4863 
L 1178 4134 
L 603 4134 
L 603 4863 
z
" transform="scale(0.015625)"/>
       <path id="DejaVuSans-64" d="M 2906 2969 
L 2906 4863 
L 3481 4863 
L 3481 0 
L 2906 0 
L 2906 525 
Q 2725 213 2448 61 
Q 2172 -91 1784 -91 
Q 1150 -91 751 415 
Q 353 922 353 1747 
Q 353 2572 751 3078 
Q 1150 3584 1784 3584 
Q 2172 3584 2448 3432 
Q 2725 3281 2906 2969 
z
M 947 1747 
Q 947 1113 1208 752 
Q 1469 391 1925 391 
Q 2381 391 2643 752 
Q 2906 1113 2906 1747 
Q 2906 2381 2643 2742 
Q 2381 3103 1925 3103 
Q 1469 3103 1208 2742 
Q 947 2381 947 1747 
z
" transform="scale(0.015625)"/>
       <path id="DejaVuSans-6c" d="M 603 4863 
L 1178 4863 
L 1178 0 
L 603 0 
L 603 4863 
z
" transform="scale(0.015625)"/>
      </defs>
      <use xlink:href="#DejaVuSans-6e"/>
      <use xlink:href="#DejaVuSans-75" x="63.378906"/>
      <use xlink:href="#DejaVuSans-6d" x="126.757812"/>
      <use xlink:href="#DejaVuSans-62" x="224.169922"/>
      <use xlink:href="#DejaVuSans-65" x="287.646484"/>
      <use xlink:href="#DejaVuSans-72" x="349.169922"/>
      <use xlink:href="#DejaVuSans-20" x="390.283203"/>
      <use xlink:href="#DejaVuSans-6f" x="422.070312"/>
      <use xlink:href="#DejaVuSans-66" x="483.251953"/>
      <use xlink:href="#DejaVuSans-20" x="518.457031"/>
      <use xlink:href="#DejaVuSans-63" x="550.244141"/>
      <use xlink:href="#DejaVuSans-6f" x="605.224609"/>
      <use xlink:href="#DejaVuSans-6d" x="666.40625"/>
      <use xlink:href="#DejaVuSans-70" x="763.818359"/>
      <use xlink:href="#DejaVuSans-6f" x="827.294922"/>
      <use xlink:href="#DejaVuSans-6e" x="888.476562"/>
      <use xlink:href="#DejaVuSans-65" x="951.855469"/>
      <use xlink:href="#DejaVuSans-6e" x="1013.378906"/>
      <use xlink:href="#DejaVuSans-74" x="1076.757812"/>
      <use xlink:href="#DejaVuSans-73" x="1115.966797"/>
      <use xlink:href="#DejaVuSans-20" x="1168.066406"/>
      <use xlink:href="#DejaVuSans-69" x="1199.853516"/>
      <use xlink:href="#DejaVuSans-6e" x="1227.636719"/>
      <use xlink:href="#DejaVuSans-20" x="1291.015625"/>
      <use xlink:href="#DejaVuSans-6d" x="1322.802734"/>
      <use xlink:href="#DejaVuSans-6f" x="1420.214844"/>
      <use xlink:href="#DejaVuSans-64" x="1481.396484"/>
      <use xlink:href="#DejaVuSans-65" x="1544.873047"/>
      <use xlink:href="#DejaVuSans-6c" x="1606.396484"/>
     </g>
    </g>
   </g>
   <g id="matplotlib.axis_2">
    <g id="text_7">
     <!-- cumulative variance explained (%) -->
     <g transform="translate(14.798438 248.043906)rotate(-90)scale(0.1 -0.1)">
      <defs>
       <path id="DejaVuSans-61" d="M 2194 1759 
Q 1497 1759 1228 1600 
Q 959 1441 959 1056 
Q 959 750 1161 570 
Q 1363 391 1709 391 
Q 2188 391 2477 730 
Q 2766 1069 2766 1631 
L 2766 1759 
L 2194 1759 
z
M 3341 1997 
L 3341 0 
L 2766 0 
L 2766 531 
Q 2569 213 2275 61 
Q 1981 -91 1556 -91 
Q 1019 -91 701 211 
Q 384 513 384 1019 
Q 384 1609 779 1909 
Q 1175 2209 1959 2209 
L 2766 2209 
L 2766 2266 
Q 2766 2663 2505 2880 
Q 2244 3097 1772 3097 
Q 1472 3097 1187 3025 
Q 903 2953 641 2809 
L 641 3341 
Q 956 3463 1253 3523 
Q 1550 3584 1831 3584 
Q 2591 3584 2966 3190 
Q 3341 2797 3341 1997 
z
" transform="scale(0.015625)"/>
       <path id="DejaVuSans-76" d="M 191 3500 
L 800 3500 
L 1894 563 
L 2988 3500 
L 3597 3500 
L 2284 0 
L 1503 0 
L 191 3500 
z
" transform="scale(0.015625)"/>
       <path id="DejaVuSans-78" d="M 3513 3500 
L 2247 1797 
L 3578 0 
L 2900 0 
L 1881 1375 
L 863 0 
L 184 0 
L 1544 1831 
L 300 3500 
L 978 3500 
L 1906 2253 
L 2834 3500 
L 3513 3500 
z
" transform="scale(0.015625)"/>
       <path id="DejaVuSans-28" d="M 1984 4856 
Q 1566 4138 1362 3434 
Q 1159 2731 1159 2009 
Q 1159 1288 1364 580 
Q 1569 -128 1984 -844 
L 1484 -844 
Q 1016 -109 783 600 
Q 550 1309 550 2009 
Q 550 2706 781 3412 
Q 1013 4119 1484 4856 
L 1984 4856 
z
" transform="scale(0.015625)"/>
       <path id="DejaVuSans-25" d="M 4653 2053 
Q 4381 2053 4226 1822 
Q 4072 1591 4072 1178 
Q 4072 772 4226 539 
Q 4381 306 4653 306 
Q 4919 306 5073 539 
Q 5228 772 5228 1178 
Q 5228 1588 5073 1820 
Q 4919 2053 4653 2053 
z
M 4653 2450 
Q 5147 2450 5437 2106 
Q 5728 1763 5728 1178 
Q 5728 594 5436 251 
Q 5144 -91 4653 -91 
Q 4153 -91 3862 251 
Q 3572 594 3572 1178 
Q 3572 1766 3864 2108 
Q 4156 2450 4653 2450 
z
M 1428 4353 
Q 1159 4353 1004 4120 
Q 850 3888 850 3481 
Q 850 3069 1003 2837 
Q 1156 2606 1428 2606 
Q 1700 2606 1854 2837 
Q 2009 3069 2009 3481 
Q 2009 3884 1853 4118 
Q 1697 4353 1428 4353 
z
M 4250 4750 
L 4750 4750 
L 1831 -91 
L 1331 -91 
L 4250 4750 
z
M 1428 4750 
Q 1922 4750 2215 4408 
Q 2509 4066 2509 3481 
Q 2509 2891 2217 2550 
Q 1925 2209 1428 2209 
Q 931 2209 642 2551 
Q 353 2894 353 3481 
Q 353 4063 643 4406 
Q 934 4750 1428 4750 
z
" transform="scale(0.015625)"/>
       <path id="DejaVuSans-29" d="M 513 4856 
L 1013 4856 
Q 1481 4119 1714 3412 
Q 1947 2706 1947 2009 
Q 1947 1309 1714 600 
Q 1481 -109 1013 -844 
L 513 -844 
Q 928 -128 1133 580 
Q 1338 1288 1338 2009 
Q 1338 2731 1133 3434 
Q 928 4138 513 4856 
z
" transform="scale(0.015625)"/>
      </defs>
      <use xlink:href="#DejaVuSans-63"/>
      <use xlink:href="#DejaVuSans-75" x="54.980469"/>
      <use xlink:href="#DejaVuSans-6d" x="118.359375"/>
      <use xlink:href="#DejaVuSans-75" x="215.771484"/>
      <use xlink:href="#DejaVuSans-6c" x="279.150391"/>
      <use xlink:href="#DejaVuSans-61" x="306.933594"/>
      <use xlink:href="#DejaVuSans-74" x="368.212891"/>
      <use xlink:href="#DejaVuSans-69" x="407.421875"/>
      <use xlink:href="#DejaVuSans-76" x="435.205078"/>
      <use xlink:href="#DejaVuSans-65" x="494.384766"/>
      <use xlink:href="#DejaVuSans-20" x="555.908203"/>
      <use xlink:href="#DejaVuSans-76" x="587.695312"/>
      <use xlink:href="#DejaVuSans-61" x="646.875"/>
      <use xlink:href="#DejaVuSans-72" x="708.154297"/>
      <use xlink:href="#DejaVuSans-69" x="749.267578"/>
      <use xlink:href="#DejaVuSans-61" x="777.050781"/>
      <use xlink:href="#DejaVuSans-6e" x="838.330078"/>
      <use xlink:href="#DejaVuSans-63" x="901.708984"/>
      <use xlink:href="#DejaVuSans-65" x="956.689453"/>
      <use xlink:href="#DejaVuSans-20" x="1018.212891"/>
      <use xlink:href="#DejaVuSans-65" x="1050"/>
      <use xlink:href="#DejaVuSans-78" x="1109.773438"/>
      <use xlink:href="#DejaVuSans-70" x="1168.953125"/>
      <use xlink:href="#DejaVuSans-6c" x="1232.429688"/>
      <use xlink:href="#DejaVuSans-61" x="1260.212891"/>
      <use xlink:href="#DejaVuSans-69" x="1321.492188"/>
      <use xlink:href="#DejaVuSans-6e" x="1349.275391"/>
      <use xlink:href="#DejaVuSans-65" x="1412.654297"/>
      <use xlink:href="#DejaVuSans-64" x="1474.177734"/>
      <use xlink:href="#DejaVuSans-20" x="1537.654297"/>
      <use xlink:href="#DejaVuSans-28" x="1569.441406"/>
      <use xlink:href="#DejaVuSans-25" x="1608.455078"/>
      <use xlink:href="#DejaVuSans-29" x="1703.474609"/>
     </g>
    </g>
   </g>
   <g id="line2d_6">
    <path d="M 31.905793 286.918125 
L 32.407051 266.243032 
L 33.409566 237.996561 
L 34.412081 218.521106 
L 35.414596 207.543435 
L 36.417112 198.401672 
L 37.419627 191.41284 
L 38.422142 185.785866 
L 39.925915 179.211524 
L 41.429688 173.765833 
L 43.434719 167.582097 
L 45.439749 162.360292 
L 47.946037 156.77727 
L 50.452326 151.9017 
L 52.958614 147.548601 
L 55.464902 143.550587 
L 58.472448 139.149093 
L 61.981251 134.465986 
L 65.991312 129.503685 
L 70.502631 124.279937 
L 74.512692 119.945191 
L 80.026526 114.317794 
L 85.54036 109.043855 
L 90.552936 104.52068 
L 96.06677 99.818274 
L 101.580604 95.375987 
L 107.595696 90.791523 
L 114.613303 85.770988 
L 120.628394 81.717267 
L 127.646001 77.261055 
L 135.164866 72.806177 
L 141.681215 69.183919 
L 148.698822 65.517436 
L 155.716429 62.084607 
L 163.235294 58.664636 
L 171.255416 55.281475 
L 178.77428 52.340498 
L 186.794402 49.44698 
L 195.315782 46.623866 
L 203.335904 44.209992 
L 211.356027 42.013664 
L 219.877406 39.899651 
L 228.398786 38.020216 
L 236.418908 36.457882 
L 243.937773 35.211526 
L 246.444061 34.918125 
L 252.459153 34.918125 
L 252.459153 34.918125 
" clip-path="url(#pcd61aab1a4)" style="fill: none; stroke: #800080; stroke-width: 2.5; stroke-linecap: square"/>
   </g>
   <g id="line2d_7">
    <path d="M 20.878125 160.918125 
L 263.486821 160.918125 
" clip-path="url(#pcd61aab1a4)" style="fill: none; stroke: #d3d3d3; stroke-width: 0.25; stroke-linecap: square"/>
   </g>
   <g id="line2d_8">
    <path d="M 46.442264 299.518125 
L 46.442264 22.318125 
" clip-path="url(#pcd61aab1a4)" style="fill: none; stroke-dasharray: 2,3.3; stroke-dashoffset: 0; stroke: #1f77b4; stroke-width: 2"/>
   </g>
   <g id="line2d_9">
    <path d="M 20.878125 110.518125 
L 263.486821 110.518125 
" clip-path="url(#pcd61aab1a4)" style="fill: none; stroke: #d3d3d3; stroke-width: 0.25; stroke-linecap: square"/>
   </g>
   <g id="line2d_10">
    <path d="M 84.036587 299.518125 
L 84.036587 22.318125 
" clip-path="url(#pcd61aab1a4)" style="fill: none; stroke-dasharray: 2,3.3; stroke-dashoffset: 0; stroke: #ff7f0e; stroke-width: 2"/>
   </g>
   <g id="line2d_11">
    <path d="M 20.878125 60.118125 
L 263.486821 60.118125 
" clip-path="url(#pcd61aab1a4)" style="fill: none; stroke: #d3d3d3; stroke-width: 0.25; stroke-linecap: square"/>
   </g>
   <g id="line2d_12">
    <path d="M 160.227748 299.518125 
L 160.227748 22.318125 
" clip-path="url(#pcd61aab1a4)" style="fill: none; stroke-dasharray: 2,3.3; stroke-dashoffset: 0; stroke: #2ca02c; stroke-width: 2"/>
   </g>
   <g id="patch_3">
    <path d="M 20.878125 299.518125 
L 263.486821 299.518125 
" style="fill: none; stroke: #000000; stroke-width: 0.8; stroke-linejoin: miter; stroke-linecap: square"/>
   </g>
   <g id="text_8">
    <g id="patch_4">
     <path d="M 31.905793 164.443428 
L 40.736943 164.443428 
Q 42.818943 164.443428 42.818943 162.361428 
L 42.818943 155.644809 
Q 42.818943 153.562809 40.736943 153.562809 
L 31.905793 153.562809 
Q 29.823793 153.562809 29.823793 155.644809 
L 29.823793 162.361428 
Q 29.823793 164.443428 31.905793 164.443428 
z
" style="fill: #ffffff; opacity: 0.8"/>
    </g>
    <!-- 50 -->
    <g transform="translate(31.905793 160.918125)scale(0.0694 -0.0694)">
     <defs>
      <path id="DejaVuSans-35" d="M 691 4666 
L 3169 4666 
L 3169 4134 
L 1269 4134 
L 1269 2991 
Q 1406 3038 1543 3061 
Q 1681 3084 1819 3084 
Q 2600 3084 3056 2656 
Q 3513 2228 3513 1497 
Q 3513 744 3044 326 
Q 2575 -91 1722 -91 
Q 1428 -91 1123 -41 
Q 819 9 494 109 
L 494 744 
Q 775 591 1075 516 
Q 1375 441 1709 441 
Q 2250 441 2565 725 
Q 2881 1009 2881 1497 
Q 2881 1984 2565 2268 
Q 2250 2553 1709 2553 
Q 1456 2553 1204 2497 
Q 953 2441 691 2322 
L 691 4666 
z
" transform="scale(0.015625)"/>
     </defs>
     <use xlink:href="#DejaVuSans-35"/>
     <use xlink:href="#DejaVuSans-30" x="63.623047"/>
    </g>
   </g>
   <g id="text_9">
    <g id="patch_5">
     <path d="M 54.222848 225.122264 
L 54.222848 157.30327 
Q 54.222848 155.56627 52.485848 155.56627 
L 40.398681 155.56627 
Q 38.661681 155.56627 38.661681 157.30327 
L 38.661681 225.122264 
Q 38.661681 226.859264 40.398681 226.859264 
L 52.485848 226.859264 
Q 54.222848 226.859264 54.222848 225.122264 
z
" style="fill: #ffffff; opacity: 0.8"/>
    </g>
    <!-- 29 components explain -->
    <g transform="translate(44.798176 225.122264)rotate(-90)scale(0.0579 -0.0579)">
     <defs>
      <path id="DejaVuSans-39" d="M 703 97 
L 703 672 
Q 941 559 1184 500 
Q 1428 441 1663 441 
Q 2288 441 2617 861 
Q 2947 1281 2994 2138 
Q 2813 1869 2534 1725 
Q 2256 1581 1919 1581 
Q 1219 1581 811 2004 
Q 403 2428 403 3163 
Q 403 3881 828 4315 
Q 1253 4750 1959 4750 
Q 2769 4750 3195 4129 
Q 3622 3509 3622 2328 
Q 3622 1225 3098 567 
Q 2575 -91 1691 -91 
Q 1453 -91 1209 -44 
Q 966 3 703 97 
z
M 1959 2075 
Q 2384 2075 2632 2365 
Q 2881 2656 2881 3163 
Q 2881 3666 2632 3958 
Q 2384 4250 1959 4250 
Q 1534 4250 1286 3958 
Q 1038 3666 1038 3163 
Q 1038 2656 1286 2365 
Q 1534 2075 1959 2075 
z
" transform="scale(0.015625)"/>
     </defs>
     <use xlink:href="#DejaVuSans-32"/>
     <use xlink:href="#DejaVuSans-39" x="63.623047"/>
     <use xlink:href="#DejaVuSans-20" x="127.246094"/>
     <use xlink:href="#DejaVuSans-63" x="159.033203"/>
     <use xlink:href="#DejaVuSans-6f" x="214.013672"/>
     <use xlink:href="#DejaVuSans-6d" x="275.195312"/>
     <use xlink:href="#DejaVuSans-70" x="372.607422"/>
     <use xlink:href="#DejaVuSans-6f" x="436.083984"/>
     <use xlink:href="#DejaVuSans-6e" x="497.265625"/>
     <use xlink:href="#DejaVuSans-65" x="560.644531"/>
     <use xlink:href="#DejaVuSans-6e" x="622.167969"/>
     <use xlink:href="#DejaVuSans-74" x="685.546875"/>
     <use xlink:href="#DejaVuSans-73" x="724.755859"/>
     <use xlink:href="#DejaVuSans-20" x="776.855469"/>
     <use xlink:href="#DejaVuSans-65" x="808.642578"/>
     <use xlink:href="#DejaVuSans-78" x="868.416016"/>
     <use xlink:href="#DejaVuSans-70" x="927.595703"/>
     <use xlink:href="#DejaVuSans-6c" x="991.072266"/>
     <use xlink:href="#DejaVuSans-61" x="1018.855469"/>
     <use xlink:href="#DejaVuSans-69" x="1080.134766"/>
     <use xlink:href="#DejaVuSans-6e" x="1107.917969"/>
    </g>
    <!-- 50% of variance -->
    <g transform="translate(51.281709 214.74188)rotate(-90)scale(0.0579 -0.0579)">
     <use xlink:href="#DejaVuSans-35"/>
     <use xlink:href="#DejaVuSans-30" x="63.623047"/>
     <use xlink:href="#DejaVuSans-25" x="127.246094"/>
     <use xlink:href="#DejaVuSans-20" x="222.265625"/>
     <use xlink:href="#DejaVuSans-6f" x="254.052734"/>
     <use xlink:href="#DejaVuSans-66" x="315.234375"/>
     <use xlink:href="#DejaVuSans-20" x="350.439453"/>
     <use xlink:href="#DejaVuSans-76" x="382.226562"/>
     <use xlink:href="#DejaVuSans-61" x="441.40625"/>
     <use xlink:href="#DejaVuSans-72" x="502.685547"/>
     <use xlink:href="#DejaVuSans-69" x="543.798828"/>
     <use xlink:href="#DejaVuSans-61" x="571.582031"/>
     <use xlink:href="#DejaVuSans-6e" x="632.861328"/>
     <use xlink:href="#DejaVuSans-63" x="696.240234"/>
     <use xlink:href="#DejaVuSans-65" x="751.220703"/>
    </g>
   </g>
   <g id="text_10">
    <g id="patch_6">
     <path d="M 31.905793 114.043428 
L 40.736943 114.043428 
Q 42.818943 114.043428 42.818943 111.961428 
L 42.818943 105.244809 
Q 42.818943 103.162809 40.736943 103.162809 
L 31.905793 103.162809 
Q 29.823793 103.162809 29.823793 105.244809 
L 29.823793 111.961428 
Q 29.823793 114.043428 31.905793 114.043428 
z
" style="fill: #ffffff; opacity: 0.8"/>
    </g>
    <!-- 70 -->
    <g transform="translate(31.905793 110.518125)scale(0.0694 -0.0694)">
     <defs>
      <path id="DejaVuSans-37" d="M 525 4666 
L 3525 4666 
L 3525 4397 
L 1831 0 
L 1172 0 
L 2766 4134 
L 525 4134 
L 525 4666 
z
" transform="scale(0.015625)"/>
     </defs>
     <use xlink:href="#DejaVuSans-37"/>
     <use xlink:href="#DejaVuSans-30" x="63.623047"/>
    </g>
   </g>
   <g id="text_11">
    <g id="patch_7">
     <path d="M 91.817171 225.122264 
L 91.817171 153.619383 
Q 91.817171 151.882383 90.080171 151.882383 
L 77.993003 151.882383 
Q 76.256003 151.882383 76.256003 153.619383 
L 76.256003 225.122264 
Q 76.256003 226.859264 77.993003 226.859264 
L 90.080171 226.859264 
Q 91.817171 226.859264 91.817171 225.122264 
z
" style="fill: #ffffff; opacity: 0.8"/>
    </g>
    <!-- 104 components explain -->
    <g transform="translate(82.392498 225.122264)rotate(-90)scale(0.0579 -0.0579)">
     <use xlink:href="#DejaVuSans-31"/>
     <use xlink:href="#DejaVuSans-30" x="63.623047"/>
     <use xlink:href="#DejaVuSans-34" x="127.246094"/>
     <use xlink:href="#DejaVuSans-20" x="190.869141"/>
     <use xlink:href="#DejaVuSans-63" x="222.65625"/>
     <use xlink:href="#DejaVuSans-6f" x="277.636719"/>
     <use xlink:href="#DejaVuSans-6d" x="338.818359"/>
     <use xlink:href="#DejaVuSans-70" x="436.230469"/>
     <use xlink:href="#DejaVuSans-6f" x="499.707031"/>
     <use xlink:href="#DejaVuSans-6e" x="560.888672"/>
     <use xlink:href="#DejaVuSans-65" x="624.267578"/>
     <use xlink:href="#DejaVuSans-6e" x="685.791016"/>
     <use xlink:href="#DejaVuSans-74" x="749.169922"/>
     <use xlink:href="#DejaVuSans-73" x="788.378906"/>
     <use xlink:href="#DejaVuSans-20" x="840.478516"/>
     <use xlink:href="#DejaVuSans-65" x="872.265625"/>
     <use xlink:href="#DejaVuSans-78" x="932.039062"/>
     <use xlink:href="#DejaVuSans-70" x="991.21875"/>
     <use xlink:href="#DejaVuSans-6c" x="1054.695312"/>
     <use xlink:href="#DejaVuSans-61" x="1082.478516"/>
     <use xlink:href="#DejaVuSans-69" x="1143.757812"/>
     <use xlink:href="#DejaVuSans-6e" x="1171.541016"/>
    </g>
    <!-- 70% of variance -->
    <g transform="translate(88.876032 212.899936)rotate(-90)scale(0.0579 -0.0579)">
     <use xlink:href="#DejaVuSans-37"/>
     <use xlink:href="#DejaVuSans-30" x="63.623047"/>
     <use xlink:href="#DejaVuSans-25" x="127.246094"/>
     <use xlink:href="#DejaVuSans-20" x="222.265625"/>
     <use xlink:href="#DejaVuSans-6f" x="254.052734"/>
     <use xlink:href="#DejaVuSans-66" x="315.234375"/>
     <use xlink:href="#DejaVuSans-20" x="350.439453"/>
     <use xlink:href="#DejaVuSans-76" x="382.226562"/>
     <use xlink:href="#DejaVuSans-61" x="441.40625"/>
     <use xlink:href="#DejaVuSans-72" x="502.685547"/>
     <use xlink:href="#DejaVuSans-69" x="543.798828"/>
     <use xlink:href="#DejaVuSans-61" x="571.582031"/>
     <use xlink:href="#DejaVuSans-6e" x="632.861328"/>
     <use xlink:href="#DejaVuSans-63" x="696.240234"/>
     <use xlink:href="#DejaVuSans-65" x="751.220703"/>
    </g>
   </g>
   <g id="text_12">
    <g id="patch_8">
     <path d="M 31.905793 63.643428 
L 40.736943 63.643428 
Q 42.818943 63.643428 42.818943 61.561428 
L 42.818943 54.844809 
Q 42.818943 52.762809 40.736943 52.762809 
L 31.905793 52.762809 
Q 29.823793 52.762809 29.823793 54.844809 
L 29.823793 61.561428 
Q 29.823793 63.643428 31.905793 63.643428 
z
" style="fill: #ffffff; opacity: 0.8"/>
    </g>
    <!-- 90 -->
    <g transform="translate(31.905793 60.118125)scale(0.0694 -0.0694)">
     <use xlink:href="#DejaVuSans-39"/>
     <use xlink:href="#DejaVuSans-30" x="63.623047"/>
    </g>
   </g>
   <g id="text_13">
    <g id="patch_9">
     <path d="M 168.008332 225.122264 
L 168.008332 153.619383 
Q 168.008332 151.882383 166.271332 151.882383 
L 154.184164 151.882383 
Q 152.447164 151.882383 152.447164 153.619383 
L 152.447164 225.122264 
Q 152.447164 226.859264 154.184164 226.859264 
L 166.271332 226.859264 
Q 168.008332 226.859264 168.008332 225.122264 
z
" style="fill: #ffffff; opacity: 0.8"/>
    </g>
    <!-- 256 components explain -->
    <g transform="translate(158.583659 225.122264)rotate(-90)scale(0.0579 -0.0579)">
     <defs>
      <path id="DejaVuSans-36" d="M 2113 2584 
Q 1688 2584 1439 2293 
Q 1191 2003 1191 1497 
Q 1191 994 1439 701 
Q 1688 409 2113 409 
Q 2538 409 2786 701 
Q 3034 994 3034 1497 
Q 3034 2003 2786 2293 
Q 2538 2584 2113 2584 
z
M 3366 4563 
L 3366 3988 
Q 3128 4100 2886 4159 
Q 2644 4219 2406 4219 
Q 1781 4219 1451 3797 
Q 1122 3375 1075 2522 
Q 1259 2794 1537 2939 
Q 1816 3084 2150 3084 
Q 2853 3084 3261 2657 
Q 3669 2231 3669 1497 
Q 3669 778 3244 343 
Q 2819 -91 2113 -91 
Q 1303 -91 875 529 
Q 447 1150 447 2328 
Q 447 3434 972 4092 
Q 1497 4750 2381 4750 
Q 2619 4750 2861 4703 
Q 3103 4656 3366 4563 
z
" transform="scale(0.015625)"/>
     </defs>
     <use xlink:href="#DejaVuSans-32"/>
     <use xlink:href="#DejaVuSans-35" x="63.623047"/>
     <use xlink:href="#DejaVuSans-36" x="127.246094"/>
     <use xlink:href="#DejaVuSans-20" x="190.869141"/>
     <use xlink:href="#DejaVuSans-63" x="222.65625"/>
     <use xlink:href="#DejaVuSans-6f" x="277.636719"/>
     <use xlink:href="#DejaVuSans-6d" x="338.818359"/>
     <use xlink:href="#DejaVuSans-70" x="436.230469"/>
     <use xlink:href="#DejaVuSans-6f" x="499.707031"/>
     <use xlink:href="#DejaVuSans-6e" x="560.888672"/>
     <use xlink:href="#DejaVuSans-65" x="624.267578"/>
     <use xlink:href="#DejaVuSans-6e" x="685.791016"/>
     <use xlink:href="#DejaVuSans-74" x="749.169922"/>
     <use xlink:href="#DejaVuSans-73" x="788.378906"/>
     <use xlink:href="#DejaVuSans-20" x="840.478516"/>
     <use xlink:href="#DejaVuSans-65" x="872.265625"/>
     <use xlink:href="#DejaVuSans-78" x="932.039062"/>
     <use xlink:href="#DejaVuSans-70" x="991.21875"/>
     <use xlink:href="#DejaVuSans-6c" x="1054.695312"/>
     <use xlink:href="#DejaVuSans-61" x="1082.478516"/>
     <use xlink:href="#DejaVuSans-69" x="1143.757812"/>
     <use xlink:href="#DejaVuSans-6e" x="1171.541016"/>
    </g>
    <!-- 90% of variance -->
    <g transform="translate(165.067193 212.899936)rotate(-90)scale(0.0579 -0.0579)">
     <use xlink:href="#DejaVuSans-39"/>
     <use xlink:href="#DejaVuSans-30" x="63.623047"/>
     <use xlink:href="#DejaVuSans-25" x="127.246094"/>
     <use xlink:href="#DejaVuSans-20" x="222.265625"/>
     <use xlink:href="#DejaVuSans-6f" x="254.052734"/>
     <use xlink:href="#DejaVuSans-66" x="315.234375"/>
     <use xlink:href="#DejaVuSans-20" x="350.439453"/>
     <use xlink:href="#DejaVuSans-76" x="382.226562"/>
     <use xlink:href="#DejaVuSans-61" x="441.40625"/>
     <use xlink:href="#DejaVuSans-72" x="502.685547"/>
     <use xlink:href="#DejaVuSans-69" x="543.798828"/>
     <use xlink:href="#DejaVuSans-61" x="571.582031"/>
     <use xlink:href="#DejaVuSans-6e" x="632.861328"/>
     <use xlink:href="#DejaVuSans-63" x="696.240234"/>
     <use xlink:href="#DejaVuSans-65" x="751.220703"/>
    </g>
   </g>
   <g id="text_14">
    <!-- aCompCor (CSF mask) -->
    <g transform="translate(74.59716 16.318125)scale(0.12 -0.12)">
     <defs>
      <path id="DejaVuSans-43" d="M 4122 4306 
L 4122 3641 
Q 3803 3938 3442 4084 
Q 3081 4231 2675 4231 
Q 1875 4231 1450 3742 
Q 1025 3253 1025 2328 
Q 1025 1406 1450 917 
Q 1875 428 2675 428 
Q 3081 428 3442 575 
Q 3803 722 4122 1019 
L 4122 359 
Q 3791 134 3420 21 
Q 3050 -91 2638 -91 
Q 1578 -91 968 557 
Q 359 1206 359 2328 
Q 359 3453 968 4101 
Q 1578 4750 2638 4750 
Q 3056 4750 3426 4639 
Q 3797 4528 4122 4306 
z
" transform="scale(0.015625)"/>
      <path id="DejaVuSans-53" d="M 3425 4513 
L 3425 3897 
Q 3066 4069 2747 4153 
Q 2428 4238 2131 4238 
Q 1616 4238 1336 4038 
Q 1056 3838 1056 3469 
Q 1056 3159 1242 3001 
Q 1428 2844 1947 2747 
L 2328 2669 
Q 3034 2534 3370 2195 
Q 3706 1856 3706 1288 
Q 3706 609 3251 259 
Q 2797 -91 1919 -91 
Q 1588 -91 1214 -16 
Q 841 59 441 206 
L 441 856 
Q 825 641 1194 531 
Q 1563 422 1919 422 
Q 2459 422 2753 634 
Q 3047 847 3047 1241 
Q 3047 1584 2836 1778 
Q 2625 1972 2144 2069 
L 1759 2144 
Q 1053 2284 737 2584 
Q 422 2884 422 3419 
Q 422 4038 858 4394 
Q 1294 4750 2059 4750 
Q 2388 4750 2728 4690 
Q 3069 4631 3425 4513 
z
" transform="scale(0.015625)"/>
      <path id="DejaVuSans-46" d="M 628 4666 
L 3309 4666 
L 3309 4134 
L 1259 4134 
L 1259 2759 
L 3109 2759 
L 3109 2228 
L 1259 2228 
L 1259 0 
L 628 0 
L 628 4666 
z
" transform="scale(0.015625)"/>
      <path id="DejaVuSans-6b" d="M 581 4863 
L 1159 4863 
L 1159 1991 
L 2875 3500 
L 3609 3500 
L 1753 1863 
L 3688 0 
L 2938 0 
L 1159 1709 
L 1159 0 
L 581 0 
L 581 4863 
z
" transform="scale(0.015625)"/>
     </defs>
     <use xlink:href="#DejaVuSans-61"/>
     <use xlink:href="#DejaVuSans-43" x="61.279297"/>
     <use xlink:href="#DejaVuSans-6f" x="131.103516"/>
     <use xlink:href="#DejaVuSans-6d" x="192.285156"/>
     <use xlink:href="#DejaVuSans-70" x="289.697266"/>
     <use xlink:href="#DejaVuSans-43" x="353.173828"/>
     <use xlink:href="#DejaVuSans-6f" x="422.998047"/>
     <use xlink:href="#DejaVuSans-72" x="484.179688"/>
     <use xlink:href="#DejaVuSans-20" x="525.292969"/>
     <use xlink:href="#DejaVuSans-28" x="557.080078"/>
     <use xlink:href="#DejaVuSans-43" x="596.09375"/>
     <use xlink:href="#DejaVuSans-53" x="665.917969"/>
     <use xlink:href="#DejaVuSans-46" x="729.394531"/>
     <use xlink:href="#DejaVuSans-20" x="786.914062"/>
     <use xlink:href="#DejaVuSans-6d" x="818.701172"/>
     <use xlink:href="#DejaVuSans-61" x="916.113281"/>
     <use xlink:href="#DejaVuSans-73" x="977.392578"/>
     <use xlink:href="#DejaVuSans-6b" x="1029.492188"/>
     <use xlink:href="#DejaVuSans-29" x="1087.402344"/>
    </g>
   </g>
  </g>
  <g id="axes_2">
   <g id="patch_10">
    <path d="M 312.00856 299.518125 
L 554.617255 299.518125 
L 554.617255 22.318125 
L 312.00856 22.318125 
z
" style="fill: #ffffff"/>
   </g>
   <g id="matplotlib.axis_3">
    <g id="xtick_6">
     <g id="line2d_13">
      <g>
       <use xlink:href="#me577d345bf" x="323.036228" y="299.518125" style="stroke: #000000; stroke-width: 0.8"/>
      </g>
     </g>
     <g id="text_15">
      <!-- 0 -->
      <g transform="translate(324.951234 310.9337)rotate(-90)scale(0.0694 -0.0694)">
       <use xlink:href="#DejaVuSans-30"/>
      </g>
     </g>
    </g>
    <g id="xtick_7">
     <g id="line2d_14">
      <g>
       <use xlink:href="#me577d345bf" x="373.161991" y="299.518125" style="stroke: #000000; stroke-width: 0.8"/>
      </g>
     </g>
     <g id="text_16">
      <!-- 100 -->
      <g transform="translate(375.076998 319.76485)rotate(-90)scale(0.0694 -0.0694)">
       <use xlink:href="#DejaVuSans-31"/>
       <use xlink:href="#DejaVuSans-30" x="63.623047"/>
       <use xlink:href="#DejaVuSans-30" x="127.246094"/>
      </g>
     </g>
    </g>
    <g id="xtick_8">
     <g id="line2d_15">
      <g>
       <use xlink:href="#me577d345bf" x="423.287755" y="299.518125" style="stroke: #000000; stroke-width: 0.8"/>
      </g>
     </g>
     <g id="text_17">
      <!-- 200 -->
      <g transform="translate(425.202761 319.76485)rotate(-90)scale(0.0694 -0.0694)">
       <use xlink:href="#DejaVuSans-32"/>
       <use xlink:href="#DejaVuSans-30" x="63.623047"/>
       <use xlink:href="#DejaVuSans-30" x="127.246094"/>
      </g>
     </g>
    </g>
    <g id="xtick_9">
     <g id="line2d_16">
      <g>
       <use xlink:href="#me577d345bf" x="473.413518" y="299.518125" style="stroke: #000000; stroke-width: 0.8"/>
      </g>
     </g>
     <g id="text_18">
      <!-- 300 -->
      <g transform="translate(475.328525 319.76485)rotate(-90)scale(0.0694 -0.0694)">
       <use xlink:href="#DejaVuSans-33"/>
       <use xlink:href="#DejaVuSans-30" x="63.623047"/>
       <use xlink:href="#DejaVuSans-30" x="127.246094"/>
      </g>
     </g>
    </g>
    <g id="xtick_10">
     <g id="line2d_17">
      <g>
       <use xlink:href="#me577d345bf" x="523.539282" y="299.518125" style="stroke: #000000; stroke-width: 0.8"/>
      </g>
     </g>
     <g id="text_19">
      <!-- 400 -->
      <g transform="translate(525.454288 319.76485)rotate(-90)scale(0.0694 -0.0694)">
       <use xlink:href="#DejaVuSans-34"/>
       <use xlink:href="#DejaVuSans-30" x="63.623047"/>
       <use xlink:href="#DejaVuSans-30" x="127.246094"/>
      </g>
     </g>
    </g>
    <g id="text_20">
     <!-- number of components in model -->
     <g transform="translate(351.604314 331.363288)scale(0.1 -0.1)">
      <use xlink:href="#DejaVuSans-6e"/>
      <use xlink:href="#DejaVuSans-75" x="63.378906"/>
      <use xlink:href="#DejaVuSans-6d" x="126.757812"/>
      <use xlink:href="#DejaVuSans-62" x="224.169922"/>
      <use xlink:href="#DejaVuSans-65" x="287.646484"/>
      <use xlink:href="#DejaVuSans-72" x="349.169922"/>
      <use xlink:href="#DejaVuSans-20" x="390.283203"/>
      <use xlink:href="#DejaVuSans-6f" x="422.070312"/>
      <use xlink:href="#DejaVuSans-66" x="483.251953"/>
      <use xlink:href="#DejaVuSans-20" x="518.457031"/>
      <use xlink:href="#DejaVuSans-63" x="550.244141"/>
      <use xlink:href="#DejaVuSans-6f" x="605.224609"/>
      <use xlink:href="#DejaVuSans-6d" x="666.40625"/>
      <use xlink:href="#DejaVuSans-70" x="763.818359"/>
      <use xlink:href="#DejaVuSans-6f" x="827.294922"/>
      <use xlink:href="#DejaVuSans-6e" x="888.476562"/>
      <use xlink:href="#DejaVuSans-65" x="951.855469"/>
      <use xlink:href="#DejaVuSans-6e" x="1013.378906"/>
      <use xlink:href="#DejaVuSans-74" x="1076.757812"/>
      <use xlink:href="#DejaVuSans-73" x="1115.966797"/>
      <use xlink:href="#DejaVuSans-20" x="1168.066406"/>
      <use xlink:href="#DejaVuSans-69" x="1199.853516"/>
      <use xlink:href="#DejaVuSans-6e" x="1227.636719"/>
      <use xlink:href="#DejaVuSans-20" x="1291.015625"/>
      <use xlink:href="#DejaVuSans-6d" x="1322.802734"/>
      <use xlink:href="#DejaVuSans-6f" x="1420.214844"/>
      <use xlink:href="#DejaVuSans-64" x="1481.396484"/>
      <use xlink:href="#DejaVuSans-65" x="1544.873047"/>
      <use xlink:href="#DejaVuSans-6c" x="1606.396484"/>
     </g>
    </g>
   </g>
   <g id="matplotlib.axis_4">
    <g id="text_21">
     <!-- cumulative variance explained (%) -->
     <g transform="translate(305.928872 248.043906)rotate(-90)scale(0.1 -0.1)">
      <use xlink:href="#DejaVuSans-63"/>
      <use xlink:href="#DejaVuSans-75" x="54.980469"/>
      <use xlink:href="#DejaVuSans-6d" x="118.359375"/>
      <use xlink:href="#DejaVuSans-75" x="215.771484"/>
      <use xlink:href="#DejaVuSans-6c" x="279.150391"/>
      <use xlink:href="#DejaVuSans-61" x="306.933594"/>
      <use xlink:href="#DejaVuSans-74" x="368.212891"/>
      <use xlink:href="#DejaVuSans-69" x="407.421875"/>
      <use xlink:href="#DejaVuSans-76" x="435.205078"/>
      <use xlink:href="#DejaVuSans-65" x="494.384766"/>
      <use xlink:href="#DejaVuSans-20" x="555.908203"/>
      <use xlink:href="#DejaVuSans-76" x="587.695312"/>
      <use xlink:href="#DejaVuSans-61" x="646.875"/>
      <use xlink:href="#DejaVuSans-72" x="708.154297"/>
      <use xlink:href="#DejaVuSans-69" x="749.267578"/>
      <use xlink:href="#DejaVuSans-61" x="777.050781"/>
      <use xlink:href="#DejaVuSans-6e" x="838.330078"/>
      <use xlink:href="#DejaVuSans-63" x="901.708984"/>
      <use xlink:href="#DejaVuSans-65" x="956.689453"/>
      <use xlink:href="#DejaVuSans-20" x="1018.212891"/>
      <use xlink:href="#DejaVuSans-65" x="1050"/>
      <use xlink:href="#DejaVuSans-78" x="1109.773438"/>
      <use xlink:href="#DejaVuSans-70" x="1168.953125"/>
      <use xlink:href="#DejaVuSans-6c" x="1232.429688"/>
      <use xlink:href="#DejaVuSans-61" x="1260.212891"/>
      <use xlink:href="#DejaVuSans-69" x="1321.492188"/>
      <use xlink:href="#DejaVuSans-6e" x="1349.275391"/>
      <use xlink:href="#DejaVuSans-65" x="1412.654297"/>
      <use xlink:href="#DejaVuSans-64" x="1474.177734"/>
      <use xlink:href="#DejaVuSans-20" x="1537.654297"/>
      <use xlink:href="#DejaVuSans-28" x="1569.441406"/>
      <use xlink:href="#DejaVuSans-25" x="1608.455078"/>
      <use xlink:href="#DejaVuSans-29" x="1703.474609"/>
     </g>
    </g>
   </g>
   <g id="line2d_18">
    <path d="M 323.036228 286.918125 
L 324.038743 275.552181 
L 325.041258 269.564553 
L 326.043774 264.946647 
L 327.547546 259.768046 
L 328.550062 256.804587 
L 330.053835 253.347615 
L 331.557608 250.495289 
L 334.565153 245.440628 
L 338.073957 240.02441 
L 343.086533 232.738249 
L 350.10414 222.990105 
L 358.124262 212.277095 
L 366.645642 201.269973 
L 375.66828 189.984842 
L 385.693432 177.845643 
L 395.217327 166.689657 
L 405.24248 155.291183 
L 415.267633 144.223238 
L 425.292785 133.488721 
L 435.317938 123.071989 
L 445.343091 112.970728 
L 455.368244 103.184282 
L 465.393396 93.692281 
L 475.418549 84.495533 
L 485.443702 75.589005 
L 495.468854 66.97263 
L 504.99275 59.075421 
L 515.017902 51.076917 
L 524.04054 44.169542 
L 532.561919 37.943341 
L 536.571981 35.164476 
L 537.073238 34.918125 
L 543.589587 34.918125 
L 543.589587 34.918125 
" clip-path="url(#p0e904344dd)" style="fill: none; stroke: #800080; stroke-width: 2.5; stroke-linecap: square"/>
   </g>
   <g id="line2d_19">
    <path d="M 312.00856 160.918125 
L 554.617255 160.918125 
" clip-path="url(#p0e904344dd)" style="fill: none; stroke: #d3d3d3; stroke-width: 0.25; stroke-linecap: square"/>
   </g>
   <g id="line2d_20">
    <path d="M 400.731161 299.518125 
L 400.731161 22.318125 
" clip-path="url(#p0e904344dd)" style="fill: none; stroke-dasharray: 2,3.3; stroke-dashoffset: 0; stroke: #1f77b4; stroke-width: 2"/>
   </g>
   <g id="line2d_21">
    <path d="M 312.00856 110.518125 
L 554.617255 110.518125 
" clip-path="url(#p0e904344dd)" style="fill: none; stroke: #d3d3d3; stroke-width: 0.25; stroke-linecap: square"/>
   </g>
   <g id="line2d_22">
    <path d="M 447.849379 299.518125 
L 447.849379 22.318125 
" clip-path="url(#p0e904344dd)" style="fill: none; stroke-dasharray: 2,3.3; stroke-dashoffset: 0; stroke: #ff7f0e; stroke-width: 2"/>
   </g>
   <g id="line2d_23">
    <path d="M 312.00856 60.118125 
L 554.617255 60.118125 
" clip-path="url(#p0e904344dd)" style="fill: none; stroke: #d3d3d3; stroke-width: 0.25; stroke-linecap: square"/>
   </g>
   <g id="line2d_24">
    <path d="M 503.990234 299.518125 
L 503.990234 22.318125 
" clip-path="url(#p0e904344dd)" style="fill: none; stroke-dasharray: 2,3.3; stroke-dashoffset: 0; stroke: #2ca02c; stroke-width: 2"/>
   </g>
   <g id="patch_11">
    <path d="M 312.00856 299.518125 
L 554.617255 299.518125 
" style="fill: none; stroke: #000000; stroke-width: 0.8; stroke-linejoin: miter; stroke-linecap: square"/>
   </g>
   <g id="text_22">
    <g id="patch_12">
     <path d="M 323.036228 164.443428 
L 331.867378 164.443428 
Q 333.949378 164.443428 333.949378 162.361428 
L 333.949378 155.644809 
Q 333.949378 153.562809 331.867378 153.562809 
L 323.036228 153.562809 
Q 320.954228 153.562809 320.954228 155.644809 
L 320.954228 162.361428 
Q 320.954228 164.443428 323.036228 164.443428 
z
" style="fill: #ffffff; opacity: 0.8"/>
    </g>
    <!-- 50 -->
    <g transform="translate(323.036228 160.918125)scale(0.0694 -0.0694)">
     <use xlink:href="#DejaVuSans-35"/>
     <use xlink:href="#DejaVuSans-30" x="63.623047"/>
    </g>
   </g>
   <g id="text_23">
    <g id="patch_13">
     <path d="M 408.511745 225.122264 
L 408.511745 153.619383 
Q 408.511745 151.882383 406.774745 151.882383 
L 394.687577 151.882383 
Q 392.950577 151.882383 392.950577 153.619383 
L 392.950577 225.122264 
Q 392.950577 226.859264 394.687577 226.859264 
L 406.774745 226.859264 
Q 408.511745 226.859264 408.511745 225.122264 
z
" style="fill: #ffffff; opacity: 0.8"/>
    </g>
    <!-- 155 components explain -->
    <g transform="translate(399.087073 225.122264)rotate(-90)scale(0.0579 -0.0579)">
     <use xlink:href="#DejaVuSans-31"/>
     <use xlink:href="#DejaVuSans-35" x="63.623047"/>
     <use xlink:href="#DejaVuSans-35" x="127.246094"/>
     <use xlink:href="#DejaVuSans-20" x="190.869141"/>
     <use xlink:href="#DejaVuSans-63" x="222.65625"/>
     <use xlink:href="#DejaVuSans-6f" x="277.636719"/>
     <use xlink:href="#DejaVuSans-6d" x="338.818359"/>
     <use xlink:href="#DejaVuSans-70" x="436.230469"/>
     <use xlink:href="#DejaVuSans-6f" x="499.707031"/>
     <use xlink:href="#DejaVuSans-6e" x="560.888672"/>
     <use xlink:href="#DejaVuSans-65" x="624.267578"/>
     <use xlink:href="#DejaVuSans-6e" x="685.791016"/>
     <use xlink:href="#DejaVuSans-74" x="749.169922"/>
     <use xlink:href="#DejaVuSans-73" x="788.378906"/>
     <use xlink:href="#DejaVuSans-20" x="840.478516"/>
     <use xlink:href="#DejaVuSans-65" x="872.265625"/>
     <use xlink:href="#DejaVuSans-78" x="932.039062"/>
     <use xlink:href="#DejaVuSans-70" x="991.21875"/>
     <use xlink:href="#DejaVuSans-6c" x="1054.695312"/>
     <use xlink:href="#DejaVuSans-61" x="1082.478516"/>
     <use xlink:href="#DejaVuSans-69" x="1143.757812"/>
     <use xlink:href="#DejaVuSans-6e" x="1171.541016"/>
    </g>
    <!-- 50% of variance -->
    <g transform="translate(405.570606 212.899936)rotate(-90)scale(0.0579 -0.0579)">
     <use xlink:href="#DejaVuSans-35"/>
     <use xlink:href="#DejaVuSans-30" x="63.623047"/>
     <use xlink:href="#DejaVuSans-25" x="127.246094"/>
     <use xlink:href="#DejaVuSans-20" x="222.265625"/>
     <use xlink:href="#DejaVuSans-6f" x="254.052734"/>
     <use xlink:href="#DejaVuSans-66" x="315.234375"/>
     <use xlink:href="#DejaVuSans-20" x="350.439453"/>
     <use xlink:href="#DejaVuSans-76" x="382.226562"/>
     <use xlink:href="#DejaVuSans-61" x="441.40625"/>
     <use xlink:href="#DejaVuSans-72" x="502.685547"/>
     <use xlink:href="#DejaVuSans-69" x="543.798828"/>
     <use xlink:href="#DejaVuSans-61" x="571.582031"/>
     <use xlink:href="#DejaVuSans-6e" x="632.861328"/>
     <use xlink:href="#DejaVuSans-63" x="696.240234"/>
     <use xlink:href="#DejaVuSans-65" x="751.220703"/>
    </g>
   </g>
   <g id="text_24">
    <g id="patch_14">
     <path d="M 323.036228 114.043428 
L 331.867378 114.043428 
Q 333.949378 114.043428 333.949378 111.961428 
L 333.949378 105.244809 
Q 333.949378 103.162809 331.867378 103.162809 
L 323.036228 103.162809 
Q 320.954228 103.162809 320.954228 105.244809 
L 320.954228 111.961428 
Q 320.954228 114.043428 323.036228 114.043428 
z
" style="fill: #ffffff; opacity: 0.8"/>
    </g>
    <!-- 70 -->
    <g transform="translate(323.036228 110.518125)scale(0.0694 -0.0694)">
     <use xlink:href="#DejaVuSans-37"/>
     <use xlink:href="#DejaVuSans-30" x="63.623047"/>
    </g>
   </g>
   <g id="text_25">
    <g id="patch_15">
     <path d="M 455.629963 225.122264 
L 455.629963 153.619383 
Q 455.629963 151.882383 453.892963 151.882383 
L 441.805795 151.882383 
Q 440.068795 151.882383 440.068795 153.619383 
L 440.068795 225.122264 
Q 440.068795 226.859264 441.805795 226.859264 
L 453.892963 226.859264 
Q 455.629963 226.859264 455.629963 225.122264 
z
" style="fill: #ffffff; opacity: 0.8"/>
    </g>
    <!-- 249 components explain -->
    <g transform="translate(446.20529 225.122264)rotate(-90)scale(0.0579 -0.0579)">
     <use xlink:href="#DejaVuSans-32"/>
     <use xlink:href="#DejaVuSans-34" x="63.623047"/>
     <use xlink:href="#DejaVuSans-39" x="127.246094"/>
     <use xlink:href="#DejaVuSans-20" x="190.869141"/>
     <use xlink:href="#DejaVuSans-63" x="222.65625"/>
     <use xlink:href="#DejaVuSans-6f" x="277.636719"/>
     <use xlink:href="#DejaVuSans-6d" x="338.818359"/>
     <use xlink:href="#DejaVuSans-70" x="436.230469"/>
     <use xlink:href="#DejaVuSans-6f" x="499.707031"/>
     <use xlink:href="#DejaVuSans-6e" x="560.888672"/>
     <use xlink:href="#DejaVuSans-65" x="624.267578"/>
     <use xlink:href="#DejaVuSans-6e" x="685.791016"/>
     <use xlink:href="#DejaVuSans-74" x="749.169922"/>
     <use xlink:href="#DejaVuSans-73" x="788.378906"/>
     <use xlink:href="#DejaVuSans-20" x="840.478516"/>
     <use xlink:href="#DejaVuSans-65" x="872.265625"/>
     <use xlink:href="#DejaVuSans-78" x="932.039062"/>
     <use xlink:href="#DejaVuSans-70" x="991.21875"/>
     <use xlink:href="#DejaVuSans-6c" x="1054.695312"/>
     <use xlink:href="#DejaVuSans-61" x="1082.478516"/>
     <use xlink:href="#DejaVuSans-69" x="1143.757812"/>
     <use xlink:href="#DejaVuSans-6e" x="1171.541016"/>
    </g>
    <!-- 70% of variance -->
    <g transform="translate(452.688824 212.899936)rotate(-90)scale(0.0579 -0.0579)">
     <use xlink:href="#DejaVuSans-37"/>
     <use xlink:href="#DejaVuSans-30" x="63.623047"/>
     <use xlink:href="#DejaVuSans-25" x="127.246094"/>
     <use xlink:href="#DejaVuSans-20" x="222.265625"/>
     <use xlink:href="#DejaVuSans-6f" x="254.052734"/>
     <use xlink:href="#DejaVuSans-66" x="315.234375"/>
     <use xlink:href="#DejaVuSans-20" x="350.439453"/>
     <use xlink:href="#DejaVuSans-76" x="382.226562"/>
     <use xlink:href="#DejaVuSans-61" x="441.40625"/>
     <use xlink:href="#DejaVuSans-72" x="502.685547"/>
     <use xlink:href="#DejaVuSans-69" x="543.798828"/>
     <use xlink:href="#DejaVuSans-61" x="571.582031"/>
     <use xlink:href="#DejaVuSans-6e" x="632.861328"/>
     <use xlink:href="#DejaVuSans-63" x="696.240234"/>
     <use xlink:href="#DejaVuSans-65" x="751.220703"/>
    </g>
   </g>
   <g id="text_26">
    <g id="patch_16">
     <path d="M 323.036228 63.643428 
L 331.867378 63.643428 
Q 333.949378 63.643428 333.949378 61.561428 
L 333.949378 54.844809 
Q 333.949378 52.762809 331.867378 52.762809 
L 323.036228 52.762809 
Q 320.954228 52.762809 320.954228 54.844809 
L 320.954228 61.561428 
Q 320.954228 63.643428 323.036228 63.643428 
z
" style="fill: #ffffff; opacity: 0.8"/>
    </g>
    <!-- 90 -->
    <g transform="translate(323.036228 60.118125)scale(0.0694 -0.0694)">
     <use xlink:href="#DejaVuSans-39"/>
     <use xlink:href="#DejaVuSans-30" x="63.623047"/>
    </g>
   </g>
   <g id="text_27">
    <g id="patch_17">
     <path d="M 511.770818 225.122264 
L 511.770818 153.619383 
Q 511.770818 151.882383 510.033818 151.882383 
L 497.94665 151.882383 
Q 496.20965 151.882383 496.20965 153.619383 
L 496.20965 225.122264 
Q 496.20965 226.859264 497.94665 226.859264 
L 510.033818 226.859264 
Q 511.770818 226.859264 511.770818 225.122264 
z
" style="fill: #ffffff; opacity: 0.8"/>
    </g>
    <!-- 361 components explain -->
    <g transform="translate(502.346146 225.122264)rotate(-90)scale(0.0579 -0.0579)">
     <use xlink:href="#DejaVuSans-33"/>
     <use xlink:href="#DejaVuSans-36" x="63.623047"/>
     <use xlink:href="#DejaVuSans-31" x="127.246094"/>
     <use xlink:href="#DejaVuSans-20" x="190.869141"/>
     <use xlink:href="#DejaVuSans-63" x="222.65625"/>
     <use xlink:href="#DejaVuSans-6f" x="277.636719"/>
     <use xlink:href="#DejaVuSans-6d" x="338.818359"/>
     <use xlink:href="#DejaVuSans-70" x="436.230469"/>
     <use xlink:href="#DejaVuSans-6f" x="499.707031"/>
     <use xlink:href="#DejaVuSans-6e" x="560.888672"/>
     <use xlink:href="#DejaVuSans-65" x="624.267578"/>
     <use xlink:href="#DejaVuSans-6e" x="685.791016"/>
     <use xlink:href="#DejaVuSans-74" x="749.169922"/>
     <use xlink:href="#DejaVuSans-73" x="788.378906"/>
     <use xlink:href="#DejaVuSans-20" x="840.478516"/>
     <use xlink:href="#DejaVuSans-65" x="872.265625"/>
     <use xlink:href="#DejaVuSans-78" x="932.039062"/>
     <use xlink:href="#DejaVuSans-70" x="991.21875"/>
     <use xlink:href="#DejaVuSans-6c" x="1054.695312"/>
     <use xlink:href="#DejaVuSans-61" x="1082.478516"/>
     <use xlink:href="#DejaVuSans-69" x="1143.757812"/>
     <use xlink:href="#DejaVuSans-6e" x="1171.541016"/>
    </g>
    <!-- 90% of variance -->
    <g transform="translate(508.829679 212.899936)rotate(-90)scale(0.0579 -0.0579)">
     <use xlink:href="#DejaVuSans-39"/>
     <use xlink:href="#DejaVuSans-30" x="63.623047"/>
     <use xlink:href="#DejaVuSans-25" x="127.246094"/>
     <use xlink:href="#DejaVuSans-20" x="222.265625"/>
     <use xlink:href="#DejaVuSans-6f" x="254.052734"/>
     <use xlink:href="#DejaVuSans-66" x="315.234375"/>
     <use xlink:href="#DejaVuSans-20" x="350.439453"/>
     <use xlink:href="#DejaVuSans-76" x="382.226562"/>
     <use xlink:href="#DejaVuSans-61" x="441.40625"/>
     <use xlink:href="#DejaVuSans-72" x="502.685547"/>
     <use xlink:href="#DejaVuSans-69" x="543.798828"/>
     <use xlink:href="#DejaVuSans-61" x="571.582031"/>
     <use xlink:href="#DejaVuSans-6e" x="632.861328"/>
     <use xlink:href="#DejaVuSans-63" x="696.240234"/>
     <use xlink:href="#DejaVuSans-65" x="751.220703"/>
    </g>
   </g>
   <g id="text_28">
    <!-- aCompCor (WM mask) -->
    <g transform="translate(366.067908 16.318125)scale(0.12 -0.12)">
     <defs>
      <path id="DejaVuSans-57" d="M 213 4666 
L 850 4666 
L 1831 722 
L 2809 4666 
L 3519 4666 
L 4500 722 
L 5478 4666 
L 6119 4666 
L 4947 0 
L 4153 0 
L 3169 4050 
L 2175 0 
L 1381 0 
L 213 4666 
z
" transform="scale(0.015625)"/>
      <path id="DejaVuSans-4d" d="M 628 4666 
L 1569 4666 
L 2759 1491 
L 3956 4666 
L 4897 4666 
L 4897 0 
L 4281 0 
L 4281 4097 
L 3078 897 
L 2444 897 
L 1241 4097 
L 1241 0 
L 628 0 
L 628 4666 
z
" transform="scale(0.015625)"/>
     </defs>
     <use xlink:href="#DejaVuSans-61"/>
     <use xlink:href="#DejaVuSans-43" x="61.279297"/>
     <use xlink:href="#DejaVuSans-6f" x="131.103516"/>
     <use xlink:href="#DejaVuSans-6d" x="192.285156"/>
     <use xlink:href="#DejaVuSans-70" x="289.697266"/>
     <use xlink:href="#DejaVuSans-43" x="353.173828"/>
     <use xlink:href="#DejaVuSans-6f" x="422.998047"/>
     <use xlink:href="#DejaVuSans-72" x="484.179688"/>
     <use xlink:href="#DejaVuSans-20" x="525.292969"/>
     <use xlink:href="#DejaVuSans-28" x="557.080078"/>
     <use xlink:href="#DejaVuSans-57" x="596.09375"/>
     <use xlink:href="#DejaVuSans-4d" x="694.970703"/>
     <use xlink:href="#DejaVuSans-20" x="781.25"/>
     <use xlink:href="#DejaVuSans-6d" x="813.037109"/>
     <use xlink:href="#DejaVuSans-61" x="910.449219"/>
     <use xlink:href="#DejaVuSans-73" x="971.728516"/>
     <use xlink:href="#DejaVuSans-6b" x="1023.828125"/>
     <use xlink:href="#DejaVuSans-29" x="1081.738281"/>
    </g>
   </g>
  </g>
  <g id="axes_3">
   <g id="patch_18">
    <path d="M 603.138995 299.518125 
L 845.74769 299.518125 
L 845.74769 22.318125 
L 603.138995 22.318125 
z
" style="fill: #ffffff"/>
   </g>
   <g id="matplotlib.axis_5">
    <g id="xtick_11">
     <g id="line2d_25">
      <g>
       <use xlink:href="#me577d345bf" x="614.166663" y="299.518125" style="stroke: #000000; stroke-width: 0.8"/>
      </g>
     </g>
     <g id="text_29">
      <!-- 0 -->
      <g transform="translate(616.081669 310.9337)rotate(-90)scale(0.0694 -0.0694)">
       <use xlink:href="#DejaVuSans-30"/>
      </g>
     </g>
    </g>
    <g id="xtick_12">
     <g id="line2d_26">
      <g>
       <use xlink:href="#me577d345bf" x="664.292426" y="299.518125" style="stroke: #000000; stroke-width: 0.8"/>
      </g>
     </g>
     <g id="text_30">
      <!-- 100 -->
      <g transform="translate(666.207432 319.76485)rotate(-90)scale(0.0694 -0.0694)">
       <use xlink:href="#DejaVuSans-31"/>
       <use xlink:href="#DejaVuSans-30" x="63.623047"/>
       <use xlink:href="#DejaVuSans-30" x="127.246094"/>
      </g>
     </g>
    </g>
    <g id="xtick_13">
     <g id="line2d_27">
      <g>
       <use xlink:href="#me577d345bf" x="714.41819" y="299.518125" style="stroke: #000000; stroke-width: 0.8"/>
      </g>
     </g>
     <g id="text_31">
      <!-- 200 -->
      <g transform="translate(716.333196 319.76485)rotate(-90)scale(0.0694 -0.0694)">
       <use xlink:href="#DejaVuSans-32"/>
       <use xlink:href="#DejaVuSans-30" x="63.623047"/>
       <use xlink:href="#DejaVuSans-30" x="127.246094"/>
      </g>
     </g>
    </g>
    <g id="xtick_14">
     <g id="line2d_28">
      <g>
       <use xlink:href="#me577d345bf" x="764.543953" y="299.518125" style="stroke: #000000; stroke-width: 0.8"/>
      </g>
     </g>
     <g id="text_32">
      <!-- 300 -->
      <g transform="translate(766.458959 319.76485)rotate(-90)scale(0.0694 -0.0694)">
       <use xlink:href="#DejaVuSans-33"/>
       <use xlink:href="#DejaVuSans-30" x="63.623047"/>
       <use xlink:href="#DejaVuSans-30" x="127.246094"/>
      </g>
     </g>
    </g>
    <g id="xtick_15">
     <g id="line2d_29">
      <g>
       <use xlink:href="#me577d345bf" x="814.669717" y="299.518125" style="stroke: #000000; stroke-width: 0.8"/>
      </g>
     </g>
     <g id="text_33">
      <!-- 400 -->
      <g transform="translate(816.584723 319.76485)rotate(-90)scale(0.0694 -0.0694)">
       <use xlink:href="#DejaVuSans-34"/>
       <use xlink:href="#DejaVuSans-30" x="63.623047"/>
       <use xlink:href="#DejaVuSans-30" x="127.246094"/>
      </g>
     </g>
    </g>
    <g id="text_34">
     <!-- number of components in model -->
     <g transform="translate(642.734749 331.363288)scale(0.1 -0.1)">
      <use xlink:href="#DejaVuSans-6e"/>
      <use xlink:href="#DejaVuSans-75" x="63.378906"/>
      <use xlink:href="#DejaVuSans-6d" x="126.757812"/>
      <use xlink:href="#DejaVuSans-62" x="224.169922"/>
      <use xlink:href="#DejaVuSans-65" x="287.646484"/>
      <use xlink:href="#DejaVuSans-72" x="349.169922"/>
      <use xlink:href="#DejaVuSans-20" x="390.283203"/>
      <use xlink:href="#DejaVuSans-6f" x="422.070312"/>
      <use xlink:href="#DejaVuSans-66" x="483.251953"/>
      <use xlink:href="#DejaVuSans-20" x="518.457031"/>
      <use xlink:href="#DejaVuSans-63" x="550.244141"/>
      <use xlink:href="#DejaVuSans-6f" x="605.224609"/>
      <use xlink:href="#DejaVuSans-6d" x="666.40625"/>
      <use xlink:href="#DejaVuSans-70" x="763.818359"/>
      <use xlink:href="#DejaVuSans-6f" x="827.294922"/>
      <use xlink:href="#DejaVuSans-6e" x="888.476562"/>
      <use xlink:href="#DejaVuSans-65" x="951.855469"/>
      <use xlink:href="#DejaVuSans-6e" x="1013.378906"/>
      <use xlink:href="#DejaVuSans-74" x="1076.757812"/>
      <use xlink:href="#DejaVuSans-73" x="1115.966797"/>
      <use xlink:href="#DejaVuSans-20" x="1168.066406"/>
      <use xlink:href="#DejaVuSans-69" x="1199.853516"/>
      <use xlink:href="#DejaVuSans-6e" x="1227.636719"/>
      <use xlink:href="#DejaVuSans-20" x="1291.015625"/>
      <use xlink:href="#DejaVuSans-6d" x="1322.802734"/>
      <use xlink:href="#DejaVuSans-6f" x="1420.214844"/>
      <use xlink:href="#DejaVuSans-64" x="1481.396484"/>
      <use xlink:href="#DejaVuSans-65" x="1544.873047"/>
      <use xlink:href="#DejaVuSans-6c" x="1606.396484"/>
     </g>
    </g>
   </g>
   <g id="matplotlib.axis_6">
    <g id="text_35">
     <!-- cumulative variance explained (%) -->
     <g transform="translate(597.059307 248.043906)rotate(-90)scale(0.1 -0.1)">
      <use xlink:href="#DejaVuSans-63"/>
      <use xlink:href="#DejaVuSans-75" x="54.980469"/>
      <use xlink:href="#DejaVuSans-6d" x="118.359375"/>
      <use xlink:href="#DejaVuSans-75" x="215.771484"/>
      <use xlink:href="#DejaVuSans-6c" x="279.150391"/>
      <use xlink:href="#DejaVuSans-61" x="306.933594"/>
      <use xlink:href="#DejaVuSans-74" x="368.212891"/>
      <use xlink:href="#DejaVuSans-69" x="407.421875"/>
      <use xlink:href="#DejaVuSans-76" x="435.205078"/>
      <use xlink:href="#DejaVuSans-65" x="494.384766"/>
      <use xlink:href="#DejaVuSans-20" x="555.908203"/>
      <use xlink:href="#DejaVuSans-76" x="587.695312"/>
      <use xlink:href="#DejaVuSans-61" x="646.875"/>
      <use xlink:href="#DejaVuSans-72" x="708.154297"/>
      <use xlink:href="#DejaVuSans-69" x="749.267578"/>
      <use xlink:href="#DejaVuSans-61" x="777.050781"/>
      <use xlink:href="#DejaVuSans-6e" x="838.330078"/>
      <use xlink:href="#DejaVuSans-63" x="901.708984"/>
      <use xlink:href="#DejaVuSans-65" x="956.689453"/>
      <use xlink:href="#DejaVuSans-20" x="1018.212891"/>
      <use xlink:href="#DejaVuSans-65" x="1050"/>
      <use xlink:href="#DejaVuSans-78" x="1109.773438"/>
      <use xlink:href="#DejaVuSans-70" x="1168.953125"/>
      <use xlink:href="#DejaVuSans-6c" x="1232.429688"/>
      <use xlink:href="#DejaVuSans-61" x="1260.212891"/>
      <use xlink:href="#DejaVuSans-69" x="1321.492188"/>
      <use xlink:href="#DejaVuSans-6e" x="1349.275391"/>
      <use xlink:href="#DejaVuSans-65" x="1412.654297"/>
      <use xlink:href="#DejaVuSans-64" x="1474.177734"/>
      <use xlink:href="#DejaVuSans-20" x="1537.654297"/>
      <use xlink:href="#DejaVuSans-28" x="1569.441406"/>
      <use xlink:href="#DejaVuSans-25" x="1608.455078"/>
      <use xlink:href="#DejaVuSans-29" x="1703.474609"/>
     </g>
    </g>
   </g>
   <g id="line2d_30">
    <path d="M 614.166663 286.918125 
L 615.169178 272.511312 
L 616.171693 264.452551 
L 617.675466 256.206509 
L 619.179239 249.782103 
L 620.181754 246.973768 
L 621.685527 243.371369 
L 623.690558 239.230104 
L 625.695588 235.591306 
L 627.700619 232.276533 
L 631.209422 226.963305 
L 635.219483 221.316685 
L 640.23206 214.688073 
L 647.750924 205.160295 
L 655.771046 195.349903 
L 664.793684 184.671221 
L 674.317579 173.765884 
L 684.342732 162.645988 
L 694.367884 151.858744 
L 704.393037 141.37436 
L 714.41819 131.192846 
L 725.445858 120.321836 
L 736.473526 109.787472 
L 746.999936 100.036093 
L 758.528862 89.67953 
L 769.055272 80.520817 
L 779.581682 71.659156 
L 789.606835 63.484817 
L 800.133245 55.209015 
L 810.158398 47.605128 
L 818.679778 41.402034 
L 826.198642 36.167212 
L 828.203673 34.918125 
L 834.720022 34.918125 
L 834.720022 34.918125 
" clip-path="url(#p03157110ef)" style="fill: none; stroke: #800080; stroke-width: 2.5; stroke-linecap: square"/>
   </g>
   <g id="line2d_31">
    <path d="M 603.138995 160.918125 
L 845.74769 160.918125 
" clip-path="url(#p03157110ef)" style="fill: none; stroke: #d3d3d3; stroke-width: 0.25; stroke-linecap: square"/>
   </g>
   <g id="line2d_32">
    <path d="M 686.347762 299.518125 
L 686.347762 22.318125 
" clip-path="url(#p03157110ef)" style="fill: none; stroke-dasharray: 2,3.3; stroke-dashoffset: 0; stroke: #1f77b4; stroke-width: 2"/>
   </g>
   <g id="line2d_33">
    <path d="M 603.138995 110.518125 
L 845.74769 110.518125 
" clip-path="url(#p03157110ef)" style="fill: none; stroke: #d3d3d3; stroke-width: 0.25; stroke-linecap: square"/>
   </g>
   <g id="line2d_34">
    <path d="M 735.972268 299.518125 
L 735.972268 22.318125 
" clip-path="url(#p03157110ef)" style="fill: none; stroke-dasharray: 2,3.3; stroke-dashoffset: 0; stroke: #ff7f0e; stroke-width: 2"/>
   </g>
   <g id="line2d_35">
    <path d="M 603.138995 60.118125 
L 845.74769 60.118125 
" clip-path="url(#p03157110ef)" style="fill: none; stroke: #d3d3d3; stroke-width: 0.25; stroke-linecap: square"/>
   </g>
   <g id="line2d_36">
    <path d="M 794.118154 299.518125 
L 794.118154 22.318125 
" clip-path="url(#p03157110ef)" style="fill: none; stroke-dasharray: 2,3.3; stroke-dashoffset: 0; stroke: #2ca02c; stroke-width: 2"/>
   </g>
   <g id="patch_19">
    <path d="M 603.138995 299.518125 
L 845.74769 299.518125 
" style="fill: none; stroke: #000000; stroke-width: 0.8; stroke-linejoin: miter; stroke-linecap: square"/>
   </g>
   <g id="text_36">
    <g id="patch_20">
     <path d="M 614.166663 164.443428 
L 622.997813 164.443428 
Q 625.079813 164.443428 625.079813 162.361428 
L 625.079813 155.644809 
Q 625.079813 153.562809 622.997813 153.562809 
L 614.166663 153.562809 
Q 612.084663 153.562809 612.084663 155.644809 
L 612.084663 162.361428 
Q 612.084663 164.443428 614.166663 164.443428 
z
" style="fill: #ffffff; opacity: 0.8"/>
    </g>
    <!-- 50 -->
    <g transform="translate(614.166663 160.918125)scale(0.0694 -0.0694)">
     <use xlink:href="#DejaVuSans-35"/>
     <use xlink:href="#DejaVuSans-30" x="63.623047"/>
    </g>
   </g>
   <g id="text_37">
    <g id="patch_21">
     <path d="M 694.128346 225.122264 
L 694.128346 153.619383 
Q 694.128346 151.882383 692.391346 151.882383 
L 680.304178 151.882383 
Q 678.567178 151.882383 678.567178 153.619383 
L 678.567178 225.122264 
Q 678.567178 226.859264 680.304178 226.859264 
L 692.391346 226.859264 
Q 694.128346 226.859264 694.128346 225.122264 
z
" style="fill: #ffffff; opacity: 0.8"/>
    </g>
    <!-- 144 components explain -->
    <g transform="translate(684.703673 225.122264)rotate(-90)scale(0.0579 -0.0579)">
     <use xlink:href="#DejaVuSans-31"/>
     <use xlink:href="#DejaVuSans-34" x="63.623047"/>
     <use xlink:href="#DejaVuSans-34" x="127.246094"/>
     <use xlink:href="#DejaVuSans-20" x="190.869141"/>
     <use xlink:href="#DejaVuSans-63" x="222.65625"/>
     <use xlink:href="#DejaVuSans-6f" x="277.636719"/>
     <use xlink:href="#DejaVuSans-6d" x="338.818359"/>
     <use xlink:href="#DejaVuSans-70" x="436.230469"/>
     <use xlink:href="#DejaVuSans-6f" x="499.707031"/>
     <use xlink:href="#DejaVuSans-6e" x="560.888672"/>
     <use xlink:href="#DejaVuSans-65" x="624.267578"/>
     <use xlink:href="#DejaVuSans-6e" x="685.791016"/>
     <use xlink:href="#DejaVuSans-74" x="749.169922"/>
     <use xlink:href="#DejaVuSans-73" x="788.378906"/>
     <use xlink:href="#DejaVuSans-20" x="840.478516"/>
     <use xlink:href="#DejaVuSans-65" x="872.265625"/>
     <use xlink:href="#DejaVuSans-78" x="932.039062"/>
     <use xlink:href="#DejaVuSans-70" x="991.21875"/>
     <use xlink:href="#DejaVuSans-6c" x="1054.695312"/>
     <use xlink:href="#DejaVuSans-61" x="1082.478516"/>
     <use xlink:href="#DejaVuSans-69" x="1143.757812"/>
     <use xlink:href="#DejaVuSans-6e" x="1171.541016"/>
    </g>
    <!-- 50% of variance -->
    <g transform="translate(691.187207 212.899936)rotate(-90)scale(0.0579 -0.0579)">
     <use xlink:href="#DejaVuSans-35"/>
     <use xlink:href="#DejaVuSans-30" x="63.623047"/>
     <use xlink:href="#DejaVuSans-25" x="127.246094"/>
     <use xlink:href="#DejaVuSans-20" x="222.265625"/>
     <use xlink:href="#DejaVuSans-6f" x="254.052734"/>
     <use xlink:href="#DejaVuSans-66" x="315.234375"/>
     <use xlink:href="#DejaVuSans-20" x="350.439453"/>
     <use xlink:href="#DejaVuSans-76" x="382.226562"/>
     <use xlink:href="#DejaVuSans-61" x="441.40625"/>
     <use xlink:href="#DejaVuSans-72" x="502.685547"/>
     <use xlink:href="#DejaVuSans-69" x="543.798828"/>
     <use xlink:href="#DejaVuSans-61" x="571.582031"/>
     <use xlink:href="#DejaVuSans-6e" x="632.861328"/>
     <use xlink:href="#DejaVuSans-63" x="696.240234"/>
     <use xlink:href="#DejaVuSans-65" x="751.220703"/>
    </g>
   </g>
   <g id="text_38">
    <g id="patch_22">
     <path d="M 614.166663 114.043428 
L 622.997813 114.043428 
Q 625.079813 114.043428 625.079813 111.961428 
L 625.079813 105.244809 
Q 625.079813 103.162809 622.997813 103.162809 
L 614.166663 103.162809 
Q 612.084663 103.162809 612.084663 105.244809 
L 612.084663 111.961428 
Q 612.084663 114.043428 614.166663 114.043428 
z
" style="fill: #ffffff; opacity: 0.8"/>
    </g>
    <!-- 70 -->
    <g transform="translate(614.166663 110.518125)scale(0.0694 -0.0694)">
     <use xlink:href="#DejaVuSans-37"/>
     <use xlink:href="#DejaVuSans-30" x="63.623047"/>
    </g>
   </g>
   <g id="text_39">
    <g id="patch_23">
     <path d="M 743.752852 225.122264 
L 743.752852 153.619383 
Q 743.752852 151.882383 742.015852 151.882383 
L 729.928684 151.882383 
Q 728.191684 151.882383 728.191684 153.619383 
L 728.191684 225.122264 
Q 728.191684 226.859264 729.928684 226.859264 
L 742.015852 226.859264 
Q 743.752852 226.859264 743.752852 225.122264 
z
" style="fill: #ffffff; opacity: 0.8"/>
    </g>
    <!-- 243 components explain -->
    <g transform="translate(734.328179 225.122264)rotate(-90)scale(0.0579 -0.0579)">
     <use xlink:href="#DejaVuSans-32"/>
     <use xlink:href="#DejaVuSans-34" x="63.623047"/>
     <use xlink:href="#DejaVuSans-33" x="127.246094"/>
     <use xlink:href="#DejaVuSans-20" x="190.869141"/>
     <use xlink:href="#DejaVuSans-63" x="222.65625"/>
     <use xlink:href="#DejaVuSans-6f" x="277.636719"/>
     <use xlink:href="#DejaVuSans-6d" x="338.818359"/>
     <use xlink:href="#DejaVuSans-70" x="436.230469"/>
     <use xlink:href="#DejaVuSans-6f" x="499.707031"/>
     <use xlink:href="#DejaVuSans-6e" x="560.888672"/>
     <use xlink:href="#DejaVuSans-65" x="624.267578"/>
     <use xlink:href="#DejaVuSans-6e" x="685.791016"/>
     <use xlink:href="#DejaVuSans-74" x="749.169922"/>
     <use xlink:href="#DejaVuSans-73" x="788.378906"/>
     <use xlink:href="#DejaVuSans-20" x="840.478516"/>
     <use xlink:href="#DejaVuSans-65" x="872.265625"/>
     <use xlink:href="#DejaVuSans-78" x="932.039062"/>
     <use xlink:href="#DejaVuSans-70" x="991.21875"/>
     <use xlink:href="#DejaVuSans-6c" x="1054.695312"/>
     <use xlink:href="#DejaVuSans-61" x="1082.478516"/>
     <use xlink:href="#DejaVuSans-69" x="1143.757812"/>
     <use xlink:href="#DejaVuSans-6e" x="1171.541016"/>
    </g>
    <!-- 70% of variance -->
    <g transform="translate(740.811713 212.899936)rotate(-90)scale(0.0579 -0.0579)">
     <use xlink:href="#DejaVuSans-37"/>
     <use xlink:href="#DejaVuSans-30" x="63.623047"/>
     <use xlink:href="#DejaVuSans-25" x="127.246094"/>
     <use xlink:href="#DejaVuSans-20" x="222.265625"/>
     <use xlink:href="#DejaVuSans-6f" x="254.052734"/>
     <use xlink:href="#DejaVuSans-66" x="315.234375"/>
     <use xlink:href="#DejaVuSans-20" x="350.439453"/>
     <use xlink:href="#DejaVuSans-76" x="382.226562"/>
     <use xlink:href="#DejaVuSans-61" x="441.40625"/>
     <use xlink:href="#DejaVuSans-72" x="502.685547"/>
     <use xlink:href="#DejaVuSans-69" x="543.798828"/>
     <use xlink:href="#DejaVuSans-61" x="571.582031"/>
     <use xlink:href="#DejaVuSans-6e" x="632.861328"/>
     <use xlink:href="#DejaVuSans-63" x="696.240234"/>
     <use xlink:href="#DejaVuSans-65" x="751.220703"/>
    </g>
   </g>
   <g id="text_40">
    <g id="patch_24">
     <path d="M 614.166663 63.643428 
L 622.997813 63.643428 
Q 625.079813 63.643428 625.079813 61.561428 
L 625.079813 54.844809 
Q 625.079813 52.762809 622.997813 52.762809 
L 614.166663 52.762809 
Q 612.084663 52.762809 612.084663 54.844809 
L 612.084663 61.561428 
Q 612.084663 63.643428 614.166663 63.643428 
z
" style="fill: #ffffff; opacity: 0.8"/>
    </g>
    <!-- 90 -->
    <g transform="translate(614.166663 60.118125)scale(0.0694 -0.0694)">
     <use xlink:href="#DejaVuSans-39"/>
     <use xlink:href="#DejaVuSans-30" x="63.623047"/>
    </g>
   </g>
   <g id="text_41">
    <g id="patch_25">
     <path d="M 801.898738 225.122264 
L 801.898738 153.619383 
Q 801.898738 151.882383 800.161738 151.882383 
L 788.07457 151.882383 
Q 786.33757 151.882383 786.33757 153.619383 
L 786.33757 225.122264 
Q 786.33757 226.859264 788.07457 226.859264 
L 800.161738 226.859264 
Q 801.898738 226.859264 801.898738 225.122264 
z
" style="fill: #ffffff; opacity: 0.8"/>
    </g>
    <!-- 359 components explain -->
    <g transform="translate(792.474065 225.122264)rotate(-90)scale(0.0579 -0.0579)">
     <use xlink:href="#DejaVuSans-33"/>
     <use xlink:href="#DejaVuSans-35" x="63.623047"/>
     <use xlink:href="#DejaVuSans-39" x="127.246094"/>
     <use xlink:href="#DejaVuSans-20" x="190.869141"/>
     <use xlink:href="#DejaVuSans-63" x="222.65625"/>
     <use xlink:href="#DejaVuSans-6f" x="277.636719"/>
     <use xlink:href="#DejaVuSans-6d" x="338.818359"/>
     <use xlink:href="#DejaVuSans-70" x="436.230469"/>
     <use xlink:href="#DejaVuSans-6f" x="499.707031"/>
     <use xlink:href="#DejaVuSans-6e" x="560.888672"/>
     <use xlink:href="#DejaVuSans-65" x="624.267578"/>
     <use xlink:href="#DejaVuSans-6e" x="685.791016"/>
     <use xlink:href="#DejaVuSans-74" x="749.169922"/>
     <use xlink:href="#DejaVuSans-73" x="788.378906"/>
     <use xlink:href="#DejaVuSans-20" x="840.478516"/>
     <use xlink:href="#DejaVuSans-65" x="872.265625"/>
     <use xlink:href="#DejaVuSans-78" x="932.039062"/>
     <use xlink:href="#DejaVuSans-70" x="991.21875"/>
     <use xlink:href="#DejaVuSans-6c" x="1054.695312"/>
     <use xlink:href="#DejaVuSans-61" x="1082.478516"/>
     <use xlink:href="#DejaVuSans-69" x="1143.757812"/>
     <use xlink:href="#DejaVuSans-6e" x="1171.541016"/>
    </g>
    <!-- 90% of variance -->
    <g transform="translate(798.957599 212.899936)rotate(-90)scale(0.0579 -0.0579)">
     <use xlink:href="#DejaVuSans-39"/>
     <use xlink:href="#DejaVuSans-30" x="63.623047"/>
     <use xlink:href="#DejaVuSans-25" x="127.246094"/>
     <use xlink:href="#DejaVuSans-20" x="222.265625"/>
     <use xlink:href="#DejaVuSans-6f" x="254.052734"/>
     <use xlink:href="#DejaVuSans-66" x="315.234375"/>
     <use xlink:href="#DejaVuSans-20" x="350.439453"/>
     <use xlink:href="#DejaVuSans-76" x="382.226562"/>
     <use xlink:href="#DejaVuSans-61" x="441.40625"/>
     <use xlink:href="#DejaVuSans-72" x="502.685547"/>
     <use xlink:href="#DejaVuSans-69" x="543.798828"/>
     <use xlink:href="#DejaVuSans-61" x="571.582031"/>
     <use xlink:href="#DejaVuSans-6e" x="632.861328"/>
     <use xlink:href="#DejaVuSans-63" x="696.240234"/>
     <use xlink:href="#DejaVuSans-65" x="751.220703"/>
    </g>
   </g>
   <g id="text_42">
    <!-- aCompCor (combined mask) -->
    <g transform="translate(638.713655 16.318125)scale(0.12 -0.12)">
     <use xlink:href="#DejaVuSans-61"/>
     <use xlink:href="#DejaVuSans-43" x="61.279297"/>
     <use xlink:href="#DejaVuSans-6f" x="131.103516"/>
     <use xlink:href="#DejaVuSans-6d" x="192.285156"/>
     <use xlink:href="#DejaVuSans-70" x="289.697266"/>
     <use xlink:href="#DejaVuSans-43" x="353.173828"/>
     <use xlink:href="#DejaVuSans-6f" x="422.998047"/>
     <use xlink:href="#DejaVuSans-72" x="484.179688"/>
     <use xlink:href="#DejaVuSans-20" x="525.292969"/>
     <use xlink:href="#DejaVuSans-28" x="557.080078"/>
     <use xlink:href="#DejaVuSans-63" x="596.09375"/>
     <use xlink:href="#DejaVuSans-6f" x="651.074219"/>
     <use xlink:href="#DejaVuSans-6d" x="712.255859"/>
     <use xlink:href="#DejaVuSans-62" x="809.667969"/>
     <use xlink:href="#DejaVuSans-69" x="873.144531"/>
     <use xlink:href="#DejaVuSans-6e" x="900.927734"/>
     <use xlink:href="#DejaVuSans-65" x="964.306641"/>
     <use xlink:href="#DejaVuSans-64" x="1025.830078"/>
     <use xlink:href="#DejaVuSans-20" x="1089.306641"/>
     <use xlink:href="#DejaVuSans-6d" x="1121.09375"/>
     <use xlink:href="#DejaVuSans-61" x="1218.505859"/>
     <use xlink:href="#DejaVuSans-73" x="1279.785156"/>
     <use xlink:href="#DejaVuSans-6b" x="1331.884766"/>
     <use xlink:href="#DejaVuSans-29" x="1389.794922"/>
    </g>
   </g>
  </g>
  <g id="axes_4">
   <g id="patch_26">
    <path d="M 894.269429 299.518125 
L 1136.878125 299.518125 
L 1136.878125 22.318125 
L 894.269429 22.318125 
z
" style="fill: #ffffff"/>
   </g>
   <g id="matplotlib.axis_7">
    <g id="xtick_16">
     <g id="line2d_37">
      <g>
       <use xlink:href="#me577d345bf" x="905.297097" y="299.518125" style="stroke: #000000; stroke-width: 0.8"/>
      </g>
     </g>
     <g id="text_43">
      <!-- 0 -->
      <g transform="translate(907.212104 310.9337)rotate(-90)scale(0.0694 -0.0694)">
       <use xlink:href="#DejaVuSans-30"/>
      </g>
     </g>
    </g>
    <g id="xtick_17">
     <g id="line2d_38">
      <g>
       <use xlink:href="#me577d345bf" x="955.422861" y="299.518125" style="stroke: #000000; stroke-width: 0.8"/>
      </g>
     </g>
     <g id="text_44">
      <!-- 100 -->
      <g transform="translate(957.337867 319.76485)rotate(-90)scale(0.0694 -0.0694)">
       <use xlink:href="#DejaVuSans-31"/>
       <use xlink:href="#DejaVuSans-30" x="63.623047"/>
       <use xlink:href="#DejaVuSans-30" x="127.246094"/>
      </g>
     </g>
    </g>
    <g id="xtick_18">
     <g id="line2d_39">
      <g>
       <use xlink:href="#me577d345bf" x="1005.548624" y="299.518125" style="stroke: #000000; stroke-width: 0.8"/>
      </g>
     </g>
     <g id="text_45">
      <!-- 200 -->
      <g transform="translate(1007.463631 319.76485)rotate(-90)scale(0.0694 -0.0694)">
       <use xlink:href="#DejaVuSans-32"/>
       <use xlink:href="#DejaVuSans-30" x="63.623047"/>
       <use xlink:href="#DejaVuSans-30" x="127.246094"/>
      </g>
     </g>
    </g>
    <g id="xtick_19">
     <g id="line2d_40">
      <g>
       <use xlink:href="#me577d345bf" x="1055.674388" y="299.518125" style="stroke: #000000; stroke-width: 0.8"/>
      </g>
     </g>
     <g id="text_46">
      <!-- 300 -->
      <g transform="translate(1057.589394 319.76485)rotate(-90)scale(0.0694 -0.0694)">
       <use xlink:href="#DejaVuSans-33"/>
       <use xlink:href="#DejaVuSans-30" x="63.623047"/>
       <use xlink:href="#DejaVuSans-30" x="127.246094"/>
      </g>
     </g>
    </g>
    <g id="xtick_20">
     <g id="line2d_41">
      <g>
       <use xlink:href="#me577d345bf" x="1105.800152" y="299.518125" style="stroke: #000000; stroke-width: 0.8"/>
      </g>
     </g>
     <g id="text_47">
      <!-- 400 -->
      <g transform="translate(1107.715158 319.76485)rotate(-90)scale(0.0694 -0.0694)">
       <use xlink:href="#DejaVuSans-34"/>
       <use xlink:href="#DejaVuSans-30" x="63.623047"/>
       <use xlink:href="#DejaVuSans-30" x="127.246094"/>
      </g>
     </g>
    </g>
    <g id="text_48">
     <!-- number of components in model -->
     <g transform="translate(933.865183 331.363288)scale(0.1 -0.1)">
      <use xlink:href="#DejaVuSans-6e"/>
      <use xlink:href="#DejaVuSans-75" x="63.378906"/>
      <use xlink:href="#DejaVuSans-6d" x="126.757812"/>
      <use xlink:href="#DejaVuSans-62" x="224.169922"/>
      <use xlink:href="#DejaVuSans-65" x="287.646484"/>
      <use xlink:href="#DejaVuSans-72" x="349.169922"/>
      <use xlink:href="#DejaVuSans-20" x="390.283203"/>
      <use xlink:href="#DejaVuSans-6f" x="422.070312"/>
      <use xlink:href="#DejaVuSans-66" x="483.251953"/>
      <use xlink:href="#DejaVuSans-20" x="518.457031"/>
      <use xlink:href="#DejaVuSans-63" x="550.244141"/>
      <use xlink:href="#DejaVuSans-6f" x="605.224609"/>
      <use xlink:href="#DejaVuSans-6d" x="666.40625"/>
      <use xlink:href="#DejaVuSans-70" x="763.818359"/>
      <use xlink:href="#DejaVuSans-6f" x="827.294922"/>
      <use xlink:href="#DejaVuSans-6e" x="888.476562"/>
      <use xlink:href="#DejaVuSans-65" x="951.855469"/>
      <use xlink:href="#DejaVuSans-6e" x="1013.378906"/>
      <use xlink:href="#DejaVuSans-74" x="1076.757812"/>
      <use xlink:href="#DejaVuSans-73" x="1115.966797"/>
      <use xlink:href="#DejaVuSans-20" x="1168.066406"/>
      <use xlink:href="#DejaVuSans-69" x="1199.853516"/>
      <use xlink:href="#DejaVuSans-6e" x="1227.636719"/>
      <use xlink:href="#DejaVuSans-20" x="1291.015625"/>
      <use xlink:href="#DejaVuSans-6d" x="1322.802734"/>
      <use xlink:href="#DejaVuSans-6f" x="1420.214844"/>
      <use xlink:href="#DejaVuSans-64" x="1481.396484"/>
      <use xlink:href="#DejaVuSans-65" x="1544.873047"/>
      <use xlink:href="#DejaVuSans-6c" x="1606.396484"/>
     </g>
    </g>
   </g>
   <g id="matplotlib.axis_8">
    <g id="text_49">
     <!-- cumulative variance explained (%) -->
     <g transform="translate(888.189742 248.043906)rotate(-90)scale(0.1 -0.1)">
      <use xlink:href="#DejaVuSans-63"/>
      <use xlink:href="#DejaVuSans-75" x="54.980469"/>
      <use xlink:href="#DejaVuSans-6d" x="118.359375"/>
      <use xlink:href="#DejaVuSans-75" x="215.771484"/>
      <use xlink:href="#DejaVuSans-6c" x="279.150391"/>
      <use xlink:href="#DejaVuSans-61" x="306.933594"/>
      <use xlink:href="#DejaVuSans-74" x="368.212891"/>
      <use xlink:href="#DejaVuSans-69" x="407.421875"/>
      <use xlink:href="#DejaVuSans-76" x="435.205078"/>
      <use xlink:href="#DejaVuSans-65" x="494.384766"/>
      <use xlink:href="#DejaVuSans-20" x="555.908203"/>
      <use xlink:href="#DejaVuSans-76" x="587.695312"/>
      <use xlink:href="#DejaVuSans-61" x="646.875"/>
      <use xlink:href="#DejaVuSans-72" x="708.154297"/>
      <use xlink:href="#DejaVuSans-69" x="749.267578"/>
      <use xlink:href="#DejaVuSans-61" x="777.050781"/>
      <use xlink:href="#DejaVuSans-6e" x="838.330078"/>
      <use xlink:href="#DejaVuSans-63" x="901.708984"/>
      <use xlink:href="#DejaVuSans-65" x="956.689453"/>
      <use xlink:href="#DejaVuSans-20" x="1018.212891"/>
      <use xlink:href="#DejaVuSans-65" x="1050"/>
      <use xlink:href="#DejaVuSans-78" x="1109.773438"/>
      <use xlink:href="#DejaVuSans-70" x="1168.953125"/>
      <use xlink:href="#DejaVuSans-6c" x="1232.429688"/>
      <use xlink:href="#DejaVuSans-61" x="1260.212891"/>
      <use xlink:href="#DejaVuSans-69" x="1321.492188"/>
      <use xlink:href="#DejaVuSans-6e" x="1349.275391"/>
      <use xlink:href="#DejaVuSans-65" x="1412.654297"/>
      <use xlink:href="#DejaVuSans-64" x="1474.177734"/>
      <use xlink:href="#DejaVuSans-20" x="1537.654297"/>
      <use xlink:href="#DejaVuSans-28" x="1569.441406"/>
      <use xlink:href="#DejaVuSans-25" x="1608.455078"/>
      <use xlink:href="#DejaVuSans-29" x="1703.474609"/>
     </g>
    </g>
   </g>
   <g id="line2d_42">
    <path d="M 905.297097 286.918125 
L 905.798355 249.08844 
L 906.80087 209.501521 
L 907.803386 179.375208 
L 908.304643 168.248604 
L 909.307158 152.489792 
L 910.309674 141.487959 
L 911.312189 132.689777 
L 912.815962 122.877704 
L 913.818477 117.574452 
L 915.32225 112.017473 
L 916.826023 107.32237 
L 918.831053 101.996102 
L 920.334826 98.530638 
L 922.339857 94.526038 
L 924.846145 90.241686 
L 926.851176 87.2884 
L 929.357464 84.038378 
L 931.362494 81.719748 
L 933.868783 79.159278 
L 936.375071 76.906798 
L 939.382617 74.46903 
L 942.390162 72.314842 
L 945.898966 70.060114 
L 949.909027 67.754884 
L 954.420346 65.446056 
L 959.432922 63.1427 
L 964.445498 61.101337 
L 970.46059 58.890883 
L 977.478197 56.56179 
L 984.997061 54.319539 
L 993.017184 52.196531 
L 1002.541079 49.928883 
L 1011.563716 47.992685 
L 1022.090126 45.966504 
L 1034.12031 43.89953 
L 1046.651751 41.996967 
L 1059.183191 40.318998 
L 1072.21589 38.792027 
L 1086.251104 37.375093 
L 1100.286318 36.181672 
L 1114.321531 35.205017 
L 1120.837881 34.918125 
L 1125.850457 34.918125 
L 1125.850457 34.918125 
" clip-path="url(#p1229b1eb28)" style="fill: none; stroke: #800080; stroke-width: 2.5; stroke-linecap: square"/>
   </g>
   <g id="line2d_43">
    <path d="M 894.269429 160.918125 
L 1136.878125 160.918125 
" clip-path="url(#p1229b1eb28)" style="fill: none; stroke: #d3d3d3; stroke-width: 0.25; stroke-linecap: square"/>
   </g>
   <g id="line2d_44">
    <path d="M 908.805901 299.518125 
L 908.805901 22.318125 
" clip-path="url(#p1229b1eb28)" style="fill: none; stroke-dasharray: 2,3.3; stroke-dashoffset: 0; stroke: #1f77b4; stroke-width: 2"/>
   </g>
   <g id="line2d_45">
    <path d="M 894.269429 110.518125 
L 1136.878125 110.518125 
" clip-path="url(#p1229b1eb28)" style="fill: none; stroke: #d3d3d3; stroke-width: 0.25; stroke-linecap: square"/>
   </g>
   <g id="line2d_46">
    <path d="M 915.823508 299.518125 
L 915.823508 22.318125 
" clip-path="url(#p1229b1eb28)" style="fill: none; stroke-dasharray: 2,3.3; stroke-dashoffset: 0; stroke: #ff7f0e; stroke-width: 2"/>
   </g>
   <g id="line2d_47">
    <path d="M 894.269429 60.118125 
L 1136.878125 60.118125 
" clip-path="url(#p1229b1eb28)" style="fill: none; stroke: #d3d3d3; stroke-width: 0.25; stroke-linecap: square"/>
   </g>
   <g id="line2d_48">
    <path d="M 967.453044 299.518125 
L 967.453044 22.318125 
" clip-path="url(#p1229b1eb28)" style="fill: none; stroke-dasharray: 2,3.3; stroke-dashoffset: 0; stroke: #2ca02c; stroke-width: 2"/>
   </g>
   <g id="patch_27">
    <path d="M 894.269429 299.518125 
L 1136.878125 299.518125 
" style="fill: none; stroke: #000000; stroke-width: 0.8; stroke-linejoin: miter; stroke-linecap: square"/>
   </g>
   <g id="text_50">
    <g id="patch_28">
     <path d="M 905.297097 164.443428 
L 914.128247 164.443428 
Q 916.210247 164.443428 916.210247 162.361428 
L 916.210247 155.644809 
Q 916.210247 153.562809 914.128247 153.562809 
L 905.297097 153.562809 
Q 903.215097 153.562809 903.215097 155.644809 
L 903.215097 162.361428 
Q 903.215097 164.443428 905.297097 164.443428 
z
" style="fill: #ffffff; opacity: 0.8"/>
    </g>
    <!-- 50 -->
    <g transform="translate(905.297097 160.918125)scale(0.0694 -0.0694)">
     <use xlink:href="#DejaVuSans-35"/>
     <use xlink:href="#DejaVuSans-30" x="63.623047"/>
    </g>
   </g>
   <g id="text_51">
    <g id="patch_29">
     <path d="M 916.586485 225.122264 
L 916.586485 160.987158 
Q 916.586485 159.250158 914.849485 159.250158 
L 902.762317 159.250158 
Q 901.025317 159.250158 901.025317 160.987158 
L 901.025317 225.122264 
Q 901.025317 226.859264 902.762317 226.859264 
L 914.849485 226.859264 
Q 916.586485 226.859264 916.586485 225.122264 
z
" style="fill: #ffffff; opacity: 0.8"/>
    </g>
    <!-- 7 components explain -->
    <g transform="translate(907.161812 225.122264)rotate(-90)scale(0.0579 -0.0579)">
     <use xlink:href="#DejaVuSans-37"/>
     <use xlink:href="#DejaVuSans-20" x="63.623047"/>
     <use xlink:href="#DejaVuSans-63" x="95.410156"/>
     <use xlink:href="#DejaVuSans-6f" x="150.390625"/>
     <use xlink:href="#DejaVuSans-6d" x="211.572266"/>
     <use xlink:href="#DejaVuSans-70" x="308.984375"/>
     <use xlink:href="#DejaVuSans-6f" x="372.460938"/>
     <use xlink:href="#DejaVuSans-6e" x="433.642578"/>
     <use xlink:href="#DejaVuSans-65" x="497.021484"/>
     <use xlink:href="#DejaVuSans-6e" x="558.544922"/>
     <use xlink:href="#DejaVuSans-74" x="621.923828"/>
     <use xlink:href="#DejaVuSans-73" x="661.132812"/>
     <use xlink:href="#DejaVuSans-20" x="713.232422"/>
     <use xlink:href="#DejaVuSans-65" x="745.019531"/>
     <use xlink:href="#DejaVuSans-78" x="804.792969"/>
     <use xlink:href="#DejaVuSans-70" x="863.972656"/>
     <use xlink:href="#DejaVuSans-6c" x="927.449219"/>
     <use xlink:href="#DejaVuSans-61" x="955.232422"/>
     <use xlink:href="#DejaVuSans-69" x="1016.511719"/>
     <use xlink:href="#DejaVuSans-6e" x="1044.294922"/>
    </g>
    <!-- 50% of variance -->
    <g transform="translate(913.645346 216.583823)rotate(-90)scale(0.0579 -0.0579)">
     <use xlink:href="#DejaVuSans-35"/>
     <use xlink:href="#DejaVuSans-30" x="63.623047"/>
     <use xlink:href="#DejaVuSans-25" x="127.246094"/>
     <use xlink:href="#DejaVuSans-20" x="222.265625"/>
     <use xlink:href="#DejaVuSans-6f" x="254.052734"/>
     <use xlink:href="#DejaVuSans-66" x="315.234375"/>
     <use xlink:href="#DejaVuSans-20" x="350.439453"/>
     <use xlink:href="#DejaVuSans-76" x="382.226562"/>
     <use xlink:href="#DejaVuSans-61" x="441.40625"/>
     <use xlink:href="#DejaVuSans-72" x="502.685547"/>
     <use xlink:href="#DejaVuSans-69" x="543.798828"/>
     <use xlink:href="#DejaVuSans-61" x="571.582031"/>
     <use xlink:href="#DejaVuSans-6e" x="632.861328"/>
     <use xlink:href="#DejaVuSans-63" x="696.240234"/>
     <use xlink:href="#DejaVuSans-65" x="751.220703"/>
    </g>
   </g>
   <g id="text_52">
    <g id="patch_30">
     <path d="M 905.297097 114.043428 
L 914.128247 114.043428 
Q 916.210247 114.043428 916.210247 111.961428 
L 916.210247 105.244809 
Q 916.210247 103.162809 914.128247 103.162809 
L 905.297097 103.162809 
Q 903.215097 103.162809 903.215097 105.244809 
L 903.215097 111.961428 
Q 903.215097 114.043428 905.297097 114.043428 
z
" style="fill: #ffffff; opacity: 0.8"/>
    </g>
    <!-- 70 -->
    <g transform="translate(905.297097 110.518125)scale(0.0694 -0.0694)">
     <use xlink:href="#DejaVuSans-37"/>
     <use xlink:href="#DejaVuSans-30" x="63.623047"/>
    </g>
   </g>
   <g id="text_53">
    <g id="patch_31">
     <path d="M 923.604092 225.122264 
L 923.604092 157.30327 
Q 923.604092 155.56627 921.867092 155.56627 
L 909.779924 155.56627 
Q 908.042924 155.56627 908.042924 157.30327 
L 908.042924 225.122264 
Q 908.042924 226.859264 909.779924 226.859264 
L 921.867092 226.859264 
Q 923.604092 226.859264 923.604092 225.122264 
z
" style="fill: #ffffff; opacity: 0.8"/>
    </g>
    <!-- 21 components explain -->
    <g transform="translate(914.179419 225.122264)rotate(-90)scale(0.0579 -0.0579)">
     <use xlink:href="#DejaVuSans-32"/>
     <use xlink:href="#DejaVuSans-31" x="63.623047"/>
     <use xlink:href="#DejaVuSans-20" x="127.246094"/>
     <use xlink:href="#DejaVuSans-63" x="159.033203"/>
     <use xlink:href="#DejaVuSans-6f" x="214.013672"/>
     <use xlink:href="#DejaVuSans-6d" x="275.195312"/>
     <use xlink:href="#DejaVuSans-70" x="372.607422"/>
     <use xlink:href="#DejaVuSans-6f" x="436.083984"/>
     <use xlink:href="#DejaVuSans-6e" x="497.265625"/>
     <use xlink:href="#DejaVuSans-65" x="560.644531"/>
     <use xlink:href="#DejaVuSans-6e" x="622.167969"/>
     <use xlink:href="#DejaVuSans-74" x="685.546875"/>
     <use xlink:href="#DejaVuSans-73" x="724.755859"/>
     <use xlink:href="#DejaVuSans-20" x="776.855469"/>
     <use xlink:href="#DejaVuSans-65" x="808.642578"/>
     <use xlink:href="#DejaVuSans-78" x="868.416016"/>
     <use xlink:href="#DejaVuSans-70" x="927.595703"/>
     <use xlink:href="#DejaVuSans-6c" x="991.072266"/>
     <use xlink:href="#DejaVuSans-61" x="1018.855469"/>
     <use xlink:href="#DejaVuSans-69" x="1080.134766"/>
     <use xlink:href="#DejaVuSans-6e" x="1107.917969"/>
    </g>
    <!-- 70% of variance -->
    <g transform="translate(920.662953 214.74188)rotate(-90)scale(0.0579 -0.0579)">
     <use xlink:href="#DejaVuSans-37"/>
     <use xlink:href="#DejaVuSans-30" x="63.623047"/>
     <use xlink:href="#DejaVuSans-25" x="127.246094"/>
     <use xlink:href="#DejaVuSans-20" x="222.265625"/>
     <use xlink:href="#DejaVuSans-6f" x="254.052734"/>
     <use xlink:href="#DejaVuSans-66" x="315.234375"/>
     <use xlink:href="#DejaVuSans-20" x="350.439453"/>
     <use xlink:href="#DejaVuSans-76" x="382.226562"/>
     <use xlink:href="#DejaVuSans-61" x="441.40625"/>
     <use xlink:href="#DejaVuSans-72" x="502.685547"/>
     <use xlink:href="#DejaVuSans-69" x="543.798828"/>
     <use xlink:href="#DejaVuSans-61" x="571.582031"/>
     <use xlink:href="#DejaVuSans-6e" x="632.861328"/>
     <use xlink:href="#DejaVuSans-63" x="696.240234"/>
     <use xlink:href="#DejaVuSans-65" x="751.220703"/>
    </g>
   </g>
   <g id="text_54">
    <g id="patch_32">
     <path d="M 905.297097 63.643428 
L 914.128247 63.643428 
Q 916.210247 63.643428 916.210247 61.561428 
L 916.210247 54.844809 
Q 916.210247 52.762809 914.128247 52.762809 
L 905.297097 52.762809 
Q 903.215097 52.762809 903.215097 54.844809 
L 903.215097 61.561428 
Q 903.215097 63.643428 905.297097 63.643428 
z
" style="fill: #ffffff; opacity: 0.8"/>
    </g>
    <!-- 90 -->
    <g transform="translate(905.297097 60.118125)scale(0.0694 -0.0694)">
     <use xlink:href="#DejaVuSans-39"/>
     <use xlink:href="#DejaVuSans-30" x="63.623047"/>
    </g>
   </g>
   <g id="text_55">
    <g id="patch_33">
     <path d="M 975.233628 225.122264 
L 975.233628 153.619383 
Q 975.233628 151.882383 973.496628 151.882383 
L 961.40946 151.882383 
Q 959.67246 151.882383 959.67246 153.619383 
L 959.67246 225.122264 
Q 959.67246 226.859264 961.40946 226.859264 
L 973.496628 226.859264 
Q 975.233628 226.859264 975.233628 225.122264 
z
" style="fill: #ffffff; opacity: 0.8"/>
    </g>
    <!-- 124 components explain -->
    <g transform="translate(965.808956 225.122264)rotate(-90)scale(0.0579 -0.0579)">
     <use xlink:href="#DejaVuSans-31"/>
     <use xlink:href="#DejaVuSans-32" x="63.623047"/>
     <use xlink:href="#DejaVuSans-34" x="127.246094"/>
     <use xlink:href="#DejaVuSans-20" x="190.869141"/>
     <use xlink:href="#DejaVuSans-63" x="222.65625"/>
     <use xlink:href="#DejaVuSans-6f" x="277.636719"/>
     <use xlink:href="#DejaVuSans-6d" x="338.818359"/>
     <use xlink:href="#DejaVuSans-70" x="436.230469"/>
     <use xlink:href="#DejaVuSans-6f" x="499.707031"/>
     <use xlink:href="#DejaVuSans-6e" x="560.888672"/>
     <use xlink:href="#DejaVuSans-65" x="624.267578"/>
     <use xlink:href="#DejaVuSans-6e" x="685.791016"/>
     <use xlink:href="#DejaVuSans-74" x="749.169922"/>
     <use xlink:href="#DejaVuSans-73" x="788.378906"/>
     <use xlink:href="#DejaVuSans-20" x="840.478516"/>
     <use xlink:href="#DejaVuSans-65" x="872.265625"/>
     <use xlink:href="#DejaVuSans-78" x="932.039062"/>
     <use xlink:href="#DejaVuSans-70" x="991.21875"/>
     <use xlink:href="#DejaVuSans-6c" x="1054.695312"/>
     <use xlink:href="#DejaVuSans-61" x="1082.478516"/>
     <use xlink:href="#DejaVuSans-69" x="1143.757812"/>
     <use xlink:href="#DejaVuSans-6e" x="1171.541016"/>
    </g>
    <!-- 90% of variance -->
    <g transform="translate(972.292489 212.899936)rotate(-90)scale(0.0579 -0.0579)">
     <use xlink:href="#DejaVuSans-39"/>
     <use xlink:href="#DejaVuSans-30" x="63.623047"/>
     <use xlink:href="#DejaVuSans-25" x="127.246094"/>
     <use xlink:href="#DejaVuSans-20" x="222.265625"/>
     <use xlink:href="#DejaVuSans-6f" x="254.052734"/>
     <use xlink:href="#DejaVuSans-66" x="315.234375"/>
     <use xlink:href="#DejaVuSans-20" x="350.439453"/>
     <use xlink:href="#DejaVuSans-76" x="382.226562"/>
     <use xlink:href="#DejaVuSans-61" x="441.40625"/>
     <use xlink:href="#DejaVuSans-72" x="502.685547"/>
     <use xlink:href="#DejaVuSans-69" x="543.798828"/>
     <use xlink:href="#DejaVuSans-61" x="571.582031"/>
     <use xlink:href="#DejaVuSans-6e" x="632.861328"/>
     <use xlink:href="#DejaVuSans-63" x="696.240234"/>
     <use xlink:href="#DejaVuSans-65" x="751.220703"/>
    </g>
   </g>
   <g id="text_56">
    <!-- tCompCor -->
    <g transform="translate(985.379715 16.318125)scale(0.12 -0.12)">
     <use xlink:href="#DejaVuSans-74"/>
     <use xlink:href="#DejaVuSans-43" x="39.208984"/>
     <use xlink:href="#DejaVuSans-6f" x="109.033203"/>
     <use xlink:href="#DejaVuSans-6d" x="170.214844"/>
     <use xlink:href="#DejaVuSans-70" x="267.626953"/>
     <use xlink:href="#DejaVuSans-43" x="331.103516"/>
     <use xlink:href="#DejaVuSans-6f" x="400.927734"/>
     <use xlink:href="#DejaVuSans-72" x="462.109375"/>
    </g>
   </g>
  </g>
 </g>
 <defs>
  <clipPath id="pcd61aab1a4">
   <rect x="20.878125" y="22.318125" width="242.608696" height="277.2"/>
  </clipPath>
  <clipPath id="p0e904344dd">
   <rect x="312.00856" y="22.318125" width="242.608696" height="277.2"/>
  </clipPath>
  <clipPath id="p03157110ef">
   <rect x="603.138995" y="22.318125" width="242.608696" height="277.2"/>
  </clipPath>
  <clipPath id="p1229b1eb28">
   <rect x="894.269429" y="22.318125" width="242.608696" height="277.2"/>
  </clipPath>
 </defs>
</svg>
